<?xml version="1.0" encoding="utf-8"?>
<!-- Generator: Adobe Illustrator 24.1.2, SVG Export Plug-In . SVG Version: 6.00 Build 0)  -->
<svg version="1.1" id="Слой_1" xmlns="http://www.w3.org/2000/svg" xmlns:xlink="http://www.w3.org/1999/xlink" x="0px" y="0px"
	 viewBox="0 0 72 48" enable-background="new 0 0 72 48" xml:space="preserve">
<defs>
	<filter id="Adobe_OpacityMaskFilter" filterUnits="userSpaceOnUse" x="0" y="0" width="72" height="48">
		<feColorMatrix  type="matrix" values="1 0 0 0 0  0 1 0 0 0  0 0 1 0 0  0 0 0 1 0"/>
	</filter>
</defs>
<mask maskUnits="userSpaceOnUse" x="0" y="0" width="72" height="48" id="mask0_10983_203607_1_">
	<path fill="#FFFFFF" filter="url(#Adobe_OpacityMaskFilter)" d="M70,0H2C0.9,0,0,0.9,0,2v44c0,1.1,0.9,2,2,2h68c1.1,0,2-0.9,2-2V2
		C72,0.9,71.1,0,70,0z"/>
</mask>
<g mask="url(#mask0_10983_203607_1_)">
	<path fill="#FFFFFF" d="M70,0H2C0.9,0,0,0.9,0,2v44c0,1.1,0.9,2,2,2h68c1.1,0,2-0.9,2-2V2C72,0.9,71.1,0,70,0z"/>
	<path fill-rule="evenodd" clip-rule="evenodd" fill="#05AB41" d="M0,0h72v48H0V0z"/>
	<path fill-rule="evenodd" clip-rule="evenodd" fill="#FDD216" d="M7.4,24.3c-0.3-0.2-0.3-0.5,0-0.7l28-16.9c0.3-0.2,0.8-0.2,1.1,0
		l28,16.9c0.3,0.2,0.3,0.5,0,0.7l-28,16.9c-0.3,0.2-0.8,0.2-1.1,0L7.4,24.3z"/>
	<defs>
		<filter id="Adobe_OpacityMaskFilter_1_" filterUnits="userSpaceOnUse" x="21.6" y="12.8" width="28.6" height="22.4">
			<feColorMatrix  type="matrix" values="1 0 0 0 0  0 1 0 0 0  0 0 1 0 0  0 0 0 1 0"/>
		</filter>
	</defs>
	<mask maskUnits="userSpaceOnUse" x="21.6" y="12.8" width="28.6" height="22.4" id="mask1_10983_203607_1_">
		<path fill="#FFFFFF" filter="url(#Adobe_OpacityMaskFilter_1_)" d="M36,35.2c6.6,0,12-5,12-11.2s-5.4-11.2-12-11.2s-12,5-12,11.2
			S29.4,35.2,36,35.2z"/>
	</mask>
	<g mask="url(#mask1_10983_203607_1_)">
		<path fill="#053087" d="M36,35.2c6.6,0,12-5,12-11.2s-5.4-11.2-12-11.2s-12,5-12,11.2S29.4,35.2,36,35.2z"/>
		<path fill="none" stroke="#FFFFFF" stroke-width="1.333" stroke-linecap="square" d="M22.6,21.1c1.9-1.4,8-0.1,13.6,1.3
			s11.6,4.4,13.1,6.1"/>
	</g>
</g>
</svg>
