<?xml version="1.0" encoding="utf-8"?>
<!-- Generator: Adobe Illustrator 24.1.2, SVG Export Plug-In . SVG Version: 6.00 Build 0)  -->
<svg version="1.1" id="Слой_1" xmlns="http://www.w3.org/2000/svg" xmlns:xlink="http://www.w3.org/1999/xlink" x="0px" y="0px"
	 viewBox="0 0 73 48" enable-background="new 0 0 73 48" xml:space="preserve">
<rect x="0.8" fill="#FFFFFF" width="72" height="48"/>
<path fill="#010101" d="M54.9,21.7c0-0.1,0.7,5.6,0.8,5.5c0.8-0.2,3.7-1.3,4.2-1.6c0,0-1.5,3.8-3.9,5.8c-0.1,0.1,0.2,3.1,0.2,4.6
	c0,0.1-2.6-0.9-3.8-1.6c-1.8,1.1-5.9,2.4-5.9,2.5l0.1,4.1c0,0,6.2-0.7,6.1-0.6c-5.1,4.2-9.7,6.1-15.7,6.2c-0.1,0,2.6-1.7,3.1-2.8
	c-0.4-0.4-2.4-2.1-2.9-2.7c0.1-0.1,3.7,0.2,5.4,0.2c1.2-1.2,2.3-2.5,3.3-3.9c1.1-1.7,2.3-3.3,3.2-5.1c0-0.1-3.1-2.6-4.2-4.1
	c-0.1-0.1,4.2,0.1,6.3-0.1C51.5,28.2,54,23.8,54.9,21.7z M41.8,1.4c-1.2,0.8-4.4,3.5-4.2,3.6c1.6,0.5,3.3,1.1,4.8,1.9
	c0,0,0.1,0.1,0.1,0.2c-2.3,0.2-4.5,0.1-6.9,0.6c-1.1,1.4-2.1,3.9-2.5,5.6c1.1,1.8,2.2,3.5,3.3,5.2c0.2,0.1,5.4-1.3,7.9-2
	c0,0-4.6,6.2-4.6,6.3c0,0,4.9,5.4,4.9,5.4c-2.5-0.4-7.6-1.6-7.6-1.5l-3.4,5.8c-0.4,2-0.7,4-1,6.1c0.1,0.2,4.5,2.5,4.5,2.5
	c0.1,0-3,0.4-4.5,0.4c-0.1,0-0.1,3.3,0.2,4.7c0,0.1-0.7,0-1.1,0c-0.9-0.8-4-4.9-4.1-5c-2.5-0.2-5.1-0.6-7.5-1.6
	c-0.1,0,5.3-2.2,5.3-2.2c0-0.1-1.6-3.3-2.1-4.9c-1.4-0.8-4.2-2.5-4.3-2.4c-1,1.4-3,4.3-3,4.3c-0.3-0.4-0.5-0.9-0.6-1.3
	c0.1-1.8,0.5-5.6,0.4-5.7c-0.8-0.6-2.4-2.2-2.3-2.3c1.2-0.4,2.4-0.8,3.6-1.1c0.5-1.4,2.4-4.6,2.5-4.9c0-0.2-1.6-1.9-2.1-2.7
	c-0.1-0.1-3.7,3.3-3.7,3.3c1.1-7,5.6-11.9,8.1-13.6c0,0-1,2.9-1.2,4.4c0,0.1,2.3,0.1,3.4,0.2c0,0.1-3.3,2.6-4.1,3.2
	c-0.1,2.5-0.2,5.8,0.3,9.2c0.1,0.1,3.4,0,5.8-0.3c1.3-0.7,5.4-2.3,5.9-2.5c0.1,0,0.6-4.7,1.1-7c-0.2-0.3-3.1-4.3-3.1-4.3
	c-0.1-0.1-3.6,0.9-5.2,1.5c-0.1,0,2.5-3.1,3.8-3.9c0.1-0.3-1.3-3.6-1.3-3.6c0-0.1,4,0.3,5.8,0.8C35.7,2.4,41.8,1.3,41.8,1.4z
	 M21.6,27c-0.1,0.1-0.2,0.3-0.2,0.4c0.5,1.7,1.2,3.4,2.1,5l0.7,0.6c1.3,1,2.6,2,3.9,2.9c0.2,0.1,0.4,0.1,0.6,0
	c1.7-1.1,3.3-2.2,4.8-3.5c-0.6-2.3-1.1-4.7-1.2-7.1c0-0.1-0.1-0.2-0.1-0.2l-6.1-2.1C24.4,24.1,22.9,25.4,21.6,27z"/>
<path fill="#010101" d="M51,5.3c0,0,1.8,3.5,2.3,5.3c3.6,2.5,5.5,4.8,5.6,4.8c-0.1,0.1-4.3-0.2-4.3-0.1c0.3,1.9,0.5,3.8,0.6,5.7
	c0,0-0.1,0-0.1,0c0,0-4.2-6-4.4-5.9c-2,0.2-3.9,0.6-5.8,1c0,0,0,0-0.1-0.1c1.1-1.3,2.2-2.6,3.2-3.9C48,12,42.8,7,42.8,7
	c2.3,0.1,4.5,0.9,6.7,1.6C49.6,8.6,51,5.3,51,5.3z"/>
</svg>
