<?xml version="1.0" encoding="utf-8"?>
<!-- Generator: Adobe Illustrator 24.1.2, SVG Export Plug-In . SVG Version: 6.00 Build 0)  -->
<svg version="1.1" id="Слой_1" xmlns="http://www.w3.org/2000/svg" xmlns:xlink="http://www.w3.org/1999/xlink" x="0px" y="0px"
	 viewBox="0 0 73 48" enable-background="new 0 0 73 48" xml:space="preserve">
<rect x="0.8" fill="#FFFFFF" width="72" height="48"/>
<path fill="#010101" d="M43.3,42H30.8l-1.4,3.7h15.1L43.3,42z"/>
<path fill="#2DB34A" d="M46.8,43.2c6.2-3.4,10.3-9.9,10.3-17.4c0-7.1-3.8-13.4-9.4-16.9l-1,3.4c4.1,3,6.8,7.9,6.8,13.4
	c0,6-3.2,11.2-7.9,14.1L46.8,43.2z"/>
<path fill="#2DB34A" d="M27.3,43.2C21.2,39.8,17,33.2,17,25.8c0-7.1,3.7-13.3,9.3-16.8l1,3.4c-4.1,3-6.7,7.8-6.7,13.3
	c0,6,3.2,11.2,8,14.1L27.3,43.2z"/>
<path fill="#010101" d="M41.2,23.7c1-10.9,5.3-19.4,5.3-19.4S45,3.5,42.7,3c0,0-1.6,6-1.6,16.9L41.2,23.7z"/>
<path fill="#010101" d="M40.7,29.3c-1.8-14.5,0.9-26.6,0.9-26.6c-1.1-0.2-2.4-0.4-3.8-0.5c0,0-0.1,9.3,1.6,19.9L40.7,29.3z"/>
<path fill="#010101" d="M42.6,40.1c0,0-1.2-4.5-2-10.5c0,0-0.5,0-1.2,0l0-0.2c-2.9-11.2-3-27.2-3-27.2c-1.2,0-2.5,0.1-3.8,0.4
	l5.6,26.9c-0.4,0-0.9,0-1.3,0L31.5,2.9c-1.3,0.3-2.6,0.8-3.9,1.4c0,0,6,10.3,8.1,25.3c-0.7,0-1.1,0-1.1,0c-0.2-1.8-1.8-8.3-1.8-8.3
	c0.6,5.4,0.5,11.8-1.3,18.7H42.6z"/>
</svg>
