<?xml version="1.0" encoding="utf-8"?>
<!-- Generator: Adobe Illustrator 24.1.2, SVG Export Plug-In . SVG Version: 6.00 Build 0)  -->
<svg version="1.1" id="Слой_1" xmlns="http://www.w3.org/2000/svg" xmlns:xlink="http://www.w3.org/1999/xlink" x="0px" y="0px"
	 viewBox="0 0 73 48" enable-background="new 0 0 73 48" xml:space="preserve">
<rect x="0.8" fill="#FFFFFF" width="72" height="48"/>
<path fill="#010101" d="M38.3,46.9c1.5-0.1,3-0.4,4.5-0.8c0.1,0,0.1-0.1,0.1-0.1V46c-1.8-2-4.7-6.1-6.7-9.8c1,4,1.8,8.3,2,10.6
	C38.2,46.9,38.2,46.9,38.3,46.9z"/>
<path fill="#010101" d="M46.6,5.5c0-0.1,0-0.1-0.1-0.1l-6.9-4h-0.1c-0.1,0-0.1,0.1-0.1,0.1c-0.3,1.5-3.6,16.2,1.6,33.7
	C39.2,23.8,43.7,11.2,46.6,5.5z"/>
<path fill="#6E6F72" d="M44.4,45.6c-9.7-15.6-8.2-37.7-7.1-44.4c0-0.1-0.1-0.1-0.1-0.1C36,1.5,27.5,5,26.5,5.3
	c-0.1,0-0.1,0.1-0.1,0.1C28.2,13.4,32.6,32.1,44.4,45.6z"/>
<path fill="#6E6F72" d="M31.2,46.1c0,0.1,0,0.1,0.1,0.1c1.7,0.5,3.4,0.7,5.2,0.7c0.1,0,0.1-0.1,0.1-0.1c-0.2-3.8-1.1-11.6-4.3-18.5
	C33.3,35.3,32.2,42.7,31.2,46.1z"/>
<path fill="#F08921" d="M28.7,45.4C28.7,45.4,28.7,45.4,28.7,45.4c0.1-0.2,0.2-0.5,0.2-0.6c0-0.1-0.1-0.1-0.1-0.1
	c-6.9-3-11.6-11.1-11.6-19.2c0-6.3,2.7-13.2,7.3-16.8V8.7c0-0.1-0.1-0.3-0.1-0.5c0-0.1-0.1-0.1-0.1-0.1h-0.1c-5.5,3.9-9,10.2-9,17.5
	C15.3,34.5,20.8,42.2,28.7,45.4z"/>
<path fill="#F08921" d="M48.5,7.6C48.5,7.6,48.5,7.6,48.5,7.6c-0.1,0-0.1,0-0.1,0.1l-0.2,0.5v0.1c0,0.1,0,0.1,0.1,0.1
	c5.2,3.5,8.1,10.6,8.1,17.3c0,7.5-3.6,15-9.8,18.3l-0.1,0.1v0.1l0.3,0.5l0.1,0.1h0.1c6.8-3.6,11.4-10.7,11.4-18.9
	C58.2,18.1,54.3,11.5,48.5,7.6z"/>
<path fill="#FFFFFF" d="M52.8,45h0.5v1.4h0.2V45H54v-0.2h-1.3"/>
<path fill="#FFFFFF" d="M55.7,44.8l-0.6,1.4l-0.5-1.4h-0.3v1.7h0.2v-1.2l0.5,1.2h0.3l0.5-1.2v1.2H56v-1.7"/>
</svg>
