<?xml version="1.0" encoding="utf-8"?>
<!-- Generator: Adobe Illustrator 24.1.2, SVG Export Plug-In . SVG Version: 6.00 Build 0)  -->
<svg version="1.1" id="Слой_1" xmlns="http://www.w3.org/2000/svg" xmlns:xlink="http://www.w3.org/1999/xlink" x="0px" y="0px"
	 viewBox="0 0 72 48" enable-background="new 0 0 72 48" xml:space="preserve">
<defs>
	<filter id="Adobe_OpacityMaskFilter" filterUnits="userSpaceOnUse" x="0" y="0" width="72" height="48">
		<feColorMatrix  type="matrix" values="1 0 0 0 0  0 1 0 0 0  0 0 1 0 0  0 0 0 1 0"/>
	</filter>
</defs>
<mask maskUnits="userSpaceOnUse" x="0" y="0" width="72" height="48" id="mask0_10983_204954_1_">
	<path fill="#FFFFFF" filter="url(#Adobe_OpacityMaskFilter)" d="M70,0H2C0.9,0,0,0.9,0,2v44c0,1.1,0.9,2,2,2h68c1.1,0,2-0.9,2-2V2
		C72,0.9,71.1,0,70,0z"/>
</mask>
<g mask="url(#mask0_10983_204954_1_)">
	<path fill="#FFFFFF" stroke="#F5F5F5" stroke-width="0.5" d="M69.8,0.3H2.3c-1.1,0-2,0.9-2,2v43.5c0,1.1,0.9,2,2,2h67.5
		c1.1,0,2-0.9,2-2V2.3C71.8,1.1,70.9,0.3,69.8,0.3z"/>
	<path fill-rule="evenodd" clip-rule="evenodd" fill="#E43D4C" d="M48,0h24v48H48V0z"/>
	<path fill-rule="evenodd" clip-rule="evenodd" fill="#1BB65D" d="M0,0h24v48H0V0z"/>
</g>
</svg>
