<?xml version="1.0" encoding="utf-8"?>
<!-- Generator: Adobe Illustrator 24.1.2, SVG Export Plug-In . SVG Version: 6.00 Build 0)  -->
<svg version="1.1" id="Слой_1" xmlns="http://www.w3.org/2000/svg" xmlns:xlink="http://www.w3.org/1999/xlink" x="0px" y="0px"
	 viewBox="0 0 600 400" enable-background="new 0 0 600 400" xml:space="preserve">
<g id="Слой_1_1_">
	<g id="Layer_3">
		<g id="Layer_5">
			<g>
				<path fill="#FFFFFF" d="M0,383c0,9.4,7.6,17,17,17h566c9.4,0,17-7.6,17-17V17c0-9.4-7.6-17-17-17H17C7.6,0,0,7.6,0,17V383z"/>
			</g>
			<g>
				<path fill-rule="evenodd" clip-rule="evenodd" fill="#FFFFFF" d="M0,383c0,9.4,7.6,17,17,17h566c9.4,0,17-7.6,17-17V17
					c0-9.4-7.6-17-17-17H17C7.6,0,0,7.6,0,17V383z"/>
			</g>
		</g>
	</g>
</g>
<g id="Слой_3">
	<g>
		<path fill-rule="evenodd" clip-rule="evenodd" fill="#FFFFFF" d="M35.6,384.1c-18.8-0.9-34.3-16.8-34.3-35.6
			c-0.1-93.4,0-186.7,0-280.1c0-19.2,16.6-35.5,35.7-35.6c27.9-0.1,55.7-0.1,83.6,0c19.4,0.1,35.5,16.3,35.7,35.6
			c0,93.4,0.1,186.7,0,280.1c0,18.9-15.5,34.7-34.3,35.6H35.6L35.6,384.1z"/>
		<path fill-rule="evenodd" clip-rule="evenodd" fill="#1D4489" d="M12.5,57c4.4-9.5,14.5-15.9,25-15.8c15.8,0.1,31.6-0.2,47.4,0.2
			c-3.7,1.2-7.5,3.4-9.1,7.2c-1.5,4-1.6,8.3-1.8,12.6c-1.6,0.2-3.7,0.3-3.7,2.4c0,2.9-0.3,7,2.6,8.6c-0.8,4.2-0.1,9-2.6,12.6
			c-2.9,2.5-7.1,1.6-10.6,2.1c-0.2,0.3-0.7,0.8-0.9,1.1c-3.8,0.3-7.6,0.6-11.3,1.4c-3.4,0.8-6.5,2.9-8.7,5.5
			c-3.7,4.3-6.3,9.3-8.9,14.3c-2.9,5.6-4.3,11.8-7.3,17.3c-4.2,8.6-8.5,17.4-10.7,26.8c-0.5,1.7,0.3,3.3,0.8,4.9
			c0.7,2.1,1.1,4.3,2,6.3c3.8,1.1,7.9,1,11.9,0.9c0,1.1,0,2.2-0.1,3.3c-1.7,2.4-4.6,4.1-5.3,7.2c-1.5,5.4-2.5,11.1-2.9,16.7
			c0.5,14.2,11.3,24.9,14.5,38.3c2.4,0.4,4.8,0.9,7.2,1.1c5.8,11.3,13.2,21.6,20.6,31.8c3.1,3.8,5.8,8.1,9.7,11.1
			c3.5,2.9,6.4,6.4,9.8,9.5c7.2,6.8,14.9,13.3,23.5,18.2c1.4,2.9,2.7,5.8,3.6,8.9c-0.9,1.6-1.8,3.4-0.8,5.2
			c2.6,6.2,7.1,11.7,8.5,18.4c0.1,1.5-1.3,3-0.6,4.5c0.6,1.2,1.5,2.1,2.3,3.2c0,8.6-2.5,17.2-1.7,25.8c0.2,3,2.5,5.2,4.6,7.1
			c-27.6,0-55.1,0-82.7,0c-10.5-0.1-20.5-6.9-24.7-16.5c-1.7-3.8-2.4-8.1-2.4-12.3c0-91.4,0-182.8,0-274.1C9.5,67.4,10,61.8,12.5,57
			L12.5,57z"/>
		<path fill-rule="evenodd" clip-rule="evenodd" fill="#C8112D" d="M93.5,41.2c8.3-0.2,16.6,0,25-0.1c7.1-0.1,14.2,2.1,19.6,6.8
			c6.4,5.3,9.8,13.6,9.9,21.8c-0.1,44.7,0,89.4,0,134.1c-1.6-2.8-3.2-5.6-4.4-8.5c-1.6-0.9-3.5-1.6-4.5-3.2c-1.3-2-4.1-2-6.1-3
			c-1.6-6-1.3-12.3-3.7-18.1c-1.8-5.3-5.5-9.9-6.3-15.6c-0.8-5.4-2-10.8-3-16.1c0.2-9.4-0.2-19.4-5.1-27.8c-3.4-6-9.7-9.2-15.1-13
			c-0.1-0.4-0.2-1.2-0.3-1.6c-3-2.1-6.4-3.7-9.7-5.4c0.2-1.3-0.2-3,1.2-3.7c3.5-2.4,5.1-6.5,7.1-10c2.7-0.9,3.5-3.8,4.9-5.9
			c1.1-1.6,1.1-3.7-0.1-5.2c2.3-4.7,4.3-10.1,2.4-15.3c-0.5-1.8-1.9-3.3-3.7-4C99.7,44.3,96.7,42.5,93.5,41.2L93.5,41.2z"/>
		<path fill-rule="evenodd" clip-rule="evenodd" fill="#C8112D" d="M91.4,139.9c3-2.5,6.5-4.5,10-6.2c1.7,9.6,3.4,19.1,5.5,28.6
			c0.4,1.8,1,3.5,1.8,5.1c3.4,7.1,7.2,14,10,21.3c-12.9,2.8-21.8,17.2-18.2,30c2.8,13.1,17.7,22,30.6,18c7.6-1.9,13.8-7.7,16.8-14.9
			c0.1,39.4,0,78.8,0,118.1c-0.1,4.9,0.4,9.8-0.9,14.6c-2.3,10.8-12,19.4-22.9,20.9c3-2,5.6-4.9,6.4-8.5c1.3-6.7-1.4-13.1-3.5-19.3
			c-1-2,0.4-4.3-0.6-6.3c-1.9-4-2.3-8.6-3-12.9c-0.8-5.6,1.7-10.9,2.2-16.3c0-5.2-4-9-6.4-13.1c-1.2-2.9-1.1-6.1-1.8-9.1
			c-2.1-10.4-2.4-21.6-8.1-31c-4.2-6.5-7.9-13.7-8.3-21.6c-0.8-12-3.1-24-6.4-35.6c0.5-0.6,1.1-1.1,1.7-1.7
			c-2.6-9.5-5.2-18.9-8-28.3c-0.9-3.1-2.7-6.2-5.9-7.4c0.1-1.5,0-3.1,0.6-4.5c2.2-5.8,4.4-11.5,6.8-17.2
			C90.1,141.6,90.6,140.6,91.4,139.9L91.4,139.9z"/>
		<path fill-rule="evenodd" clip-rule="evenodd" fill="#FFFFFF" d="M88.2,171.7c-0.9-3.1-2.7-6.2-5.9-7.4c0.1-1.5,0-3,0.6-4.5
			l6.8-17.2c0.4-1,0.9-2,1.8-2.7c3-2.5,6.5-4.5,10-6.2c1.7,9.5,3.4,19.1,5.5,28.6l1.8,5.1c3.4,7.1,7.2,14,10,21.3
			c-12.9,2.8-21.8,17.2-18.2,30c2.8,13.1,17.7,22,30.6,18c7.6-1.9,13.8-7.7,16.8-14.9v-18c-1.6-2.8-3.2-5.6-4.4-8.5
			c-1.6-0.9-3.5-1.6-4.5-3.2c-1.3-2-4.1-2-6.1-3c-1.6-6-1.3-12.3-3.7-18.1c-1.8-5.3-5.5-9.9-6.3-15.6c-0.7-5.4-2-10.8-3-16.1
			c0.2-9.4-0.2-19.4-5.1-27.8c-3.4-6-9.7-9.2-15.1-13l-0.3-1.6c-3-2.1-6.4-3.7-9.7-5.4c0.2-1.3-0.2-3,1.2-3.7
			c3.5-2.4,5.1-6.5,7.1-10c2.7-0.9,3.5-3.8,4.9-5.9c1.1-1.6,1.1-3.7-0.1-5.2c2.3-4.7,4.3-10.2,2.4-15.3c-0.5-1.8-1.9-3.3-3.7-4
			c-1.8-3-4.9-4.8-8-6.1l-8.7,0.1c-3.7,1.2-7.5,3.4-9.1,7.2c-1.5,4-1.6,8.3-1.8,12.6c-1.6,0.2-3.7,0.3-3.7,2.4c0,2.9-0.3,7,2.6,8.6
			c-0.8,4.2-0.1,9-2.6,12.6c-2.9,2.5-7.1,1.6-10.6,2.1l-0.9,1c-3.8,0.3-7.6,0.6-11.3,1.4c-3.4,0.8-6.5,2.8-8.7,5.5
			c-3.7,4.3-6.3,9.3-8.9,14.3c-2.9,5.6-4.3,11.8-7.3,17.3c-4.3,8.6-8.5,17.4-10.7,26.8c-0.5,1.7,0.3,3.3,0.8,4.9
			c0.7,2.1,1.1,4.3,2,6.3c3.9,1.1,7.9,1,11.9,0.9c0,1.1,0,2.2-0.1,3.3c-1.7,2.4-4.6,4.1-5.3,7.2c-1.5,5.4-2.5,11.1-2.9,16.7
			c0.5,14.2,11.3,24.9,14.5,38.3l7.2,1.1c5.8,11.3,13.2,21.6,20.6,31.8c3.1,3.8,5.8,8.1,9.7,11.1c3.5,2.9,6.4,6.4,9.8,9.5
			c7.2,6.8,14.9,13.3,23.5,18.2c1.4,2.9,2.7,5.8,3.6,8.9c-0.9,1.6-1.8,3.4-0.8,5.2c2.6,6.2,7.1,11.7,8.5,18.4c0.1,1.6-1.3,3-0.6,4.5
			c0.6,1.2,1.5,2.1,2.3,3.2c0,8.6-2.5,17.2-1.7,25.8c0.2,3,2.5,5.2,4.6,7.1l4.7-0.2c3-2,5.6-4.9,6.4-8.5c1.2-6.7-1.4-13.1-3.5-19.3
			c-1-2,0.4-4.3-0.6-6.3c-1.9-4-2.3-8.6-3-12.9c-0.8-5.6,1.7-10.9,2.2-16.4c0-5.2-4-9-6.4-13.1c-1.2-2.9-1.1-6.1-1.8-9.1
			c-2.1-10.4-2.4-21.7-8.1-31c-4.2-6.5-7.9-13.7-8.3-21.6c-0.9-12-3.1-24-6.4-35.6l1.7-1.7L88.2,171.7L88.2,171.7z"/>
		<path fill-rule="evenodd" clip-rule="evenodd" fill="#1D4289" d="M197.4,42.3c20.4,0,40.7,0,61.1,0c12.4,85,24.9,170,37.3,255
			c1,6.2,1.4,12.5,3.1,18.6c-0.4-2.2-0.7-4.5-1-6.7c-5.2-60.6-9.8-121.3-12.1-182.1c-1.2-28.3-0.5-56.5-0.7-84.8
			c13.1,0,26.3,0,39.4,0c0,111.6,0,223.2,0,334.8c-18.6,0-37.2,0-55.9,0c-9.1-64.9-18.2-129.8-27.3-194.7
			c-3.5-23.1-6.1-46.3-10.1-69.3c2.5,35.8,3.5,71.8,4.7,107.7c1.7,52.1,0.9,104.2,1,156.3c-13.2,0-26.4,0-39.6,0
			C197.4,265.4,197.4,153.8,197.4,42.3L197.4,42.3z"/>
		<path fill-rule="evenodd" clip-rule="evenodd" fill="#1D4289" d="M346.9,42.3c19.4,0,38.8-0.1,58.2,0c15.3,0.2,31.5,4.7,42.1,16.2
			c12.1,13,15.6,31.5,15.9,48.6c-0.1,19.8,0.3,39.6-0.2,59.4c-0.8,17.3-6.4,36.4-22.1,45.9c8.5,5.7,15.1,14.1,18.4,23.8
			c5.7,15.7,3.4,32.6,3.9,49c-0.4,16.7,1.5,33.8-2.9,50.2c-2.9,11.2-8.7,21.9-17.8,29.3c-10.7,8.8-24.9,12.2-38.6,12.3
			c-19,0-37.9,0-56.9,0C346.9,265.4,346.9,153.8,346.9,42.3L346.9,42.3z M392.2,84.6c0,36.8,0,73.6,0,110.4c6.6-0.1,14,0.7,19.7-3.3
			c5.1-4.2,5.6-11.3,5.9-17.4c0.1-23.3,0-46.5,0-69.8c-0.2-6-1.2-13-6.5-16.9C405.8,83.7,398.6,84.8,392.2,84.6L392.2,84.6z
			 M392.2,231.8c0,34.3,0,68.6,0,102.9c6.6-0.1,14.1,1,19.6-3.4c4.9-4.2,5.7-11,6-17.1c0-20.7,0-41.4,0-62.1
			c-0.2-6-1.2-12.9-6.3-16.8C406,231.1,398.7,231.8,392.2,231.8L392.2,231.8z"/>
		<path fill-rule="evenodd" clip-rule="evenodd" fill="#1D4289" d="M502,42.3c21.6,0,43.1,0,64.7,0c10.7,111.6,21.3,223.2,32,334.7
			c-15.9,0-31.8,0-47.8,0c-1.4-22-2.8-40.9-4.2-62.9c-9.2,0-18.4,0-27.6,0c-1.4,22-2.5,40.9-3.8,62.9c-15.3,0-30.6,0-45.9,0
			C480.3,265.4,491.2,153.8,502,42.3L502,42.3z M521.5,275.6c7.6,0,15.2,0,22.9,0c-3.7-62.3-7.9-131.1-11.4-193.5
			c-0.2-4.2-0.5-8.3-1.1-12.4C528.3,136.1,525.9,209.2,521.5,275.6L521.5,275.6z"/>
	</g>
</g>
</svg>
