<?xml version="1.0" encoding="utf-8"?>
<!-- Generator: Adobe Illustrator 24.1.2, SVG Export Plug-In . SVG Version: 6.00 Build 0)  -->
<svg version="1.1" id="Слой_1" xmlns="http://www.w3.org/2000/svg" xmlns:xlink="http://www.w3.org/1999/xlink" x="0px" y="0px"
	 viewBox="0 0 72 48" style="enable-background:new 0 0 72 48;" xml:space="preserve">
<defs>
	<filter id="Adobe_OpacityMaskFilter" filterUnits="userSpaceOnUse" x="0" y="0" width="72" height="48.3">
		<feColorMatrix  type="matrix" values="1 0 0 0 0  0 1 0 0 0  0 0 1 0 0  0 0 0 1 0"/>
	</filter>
</defs>
<mask maskUnits="userSpaceOnUse" x="0" y="0" width="72" height="48.3" id="mask0_10983_204701_1_">
	<path style="fill:#FFFFFF;filter:url(#Adobe_OpacityMaskFilter);" d="M70,0H2C0.9,0,0,0.9,0,2v44c0,1.1,0.9,2,2,2h68
		c1.1,0,2-0.9,2-2V2C72,0.9,71.1,0,70,0z"/>
</mask>
<g style="mask:url(#mask0_10983_204701_1_);">
	<path style="fill:#FFDF20;" d="M70,0H2C0.9,0,0,0.9,0,2v44c0,1.1,0.9,2,2,2h68c1.1,0,2-0.9,2-2V2C72,0.9,71.1,0,70,0z"/>
	<path style="fill:#E32139;" d="M15.4,31.7c-0.2,0-0.3,0-0.5-0.1c-0.3-0.1-6.7-2.2-6.7-7.4v-6.6c0-0.7,0.6-1.3,1.4-1.3h11.5
		c0.8,0,1.4,0.6,1.4,1.3v6.6c0,5.2-6.5,7.3-6.7,7.4C15.8,31.7,15.6,31.7,15.4,31.7L15.4,31.7z"/>
	<path style="fill-rule:evenodd;clip-rule:evenodd;fill:#CF1615;" d="M0,36.8h72v11.5H0V36.8z"/>
	<path style="fill-rule:evenodd;clip-rule:evenodd;fill:#E32139;" d="M0,0h72v11.5H0V0z"/>
</g>
</svg>
