<?xml version="1.0" encoding="utf-8"?>
<!-- Generator: Adobe Illustrator 24.1.2, SVG Export Plug-In . SVG Version: 6.00 Build 0)  -->
<svg version="1.1" id="Слой_1" xmlns="http://www.w3.org/2000/svg" xmlns:xlink="http://www.w3.org/1999/xlink" x="0px" y="0px"
	 viewBox="0 0 73 48" enable-background="new 0 0 73 48" xml:space="preserve">
<rect x="0.8" fill="#FFFFFF" width="72" height="48"/>
<path fill="#DABA4B" d="M37.4,45.4c12.1,0,21.8-9.8,21.8-21.8c0-12.1-9.8-21.8-21.8-21.8c-12.1,0-21.8,9.8-21.8,21.8
	C15.6,35.6,25.3,45.4,37.4,45.4z"/>
<path fill="#C54D45" d="M37.4,43.6c11.1,0,20-9,20-20c0-11.1-9-20.1-20-20.1s-20.1,9-20.1,20.1C17.4,34.6,26.3,43.6,37.4,43.6z"/>
<path fill="#DABA4B" d="M37.4,36.1c6.9,0,12.6-5.6,12.6-12.6C50,16.6,44.3,11,37.4,11c-6.9,0-12.6,5.6-12.6,12.6
	C24.9,30.5,30.5,36.1,37.4,36.1z"/>
<path fill="#FFFFFF" d="M37.4,36c3.4,0,6.6-1.4,8.8-3.7c2.3-2.3,3.7-5.4,3.7-8.8c0-3.5-1.4-6.6-3.7-8.8c-2.3-2.3-5.4-3.7-8.8-3.7
	c-3.5,0-6.6,1.4-8.8,3.7c-2.3,2.3-3.7,5.4-3.7,8.8c0,3.4,1.4,6.6,3.7,8.8C30.8,34.6,34,36,37.4,36z M37.4,36.2
	c-3.5,0-6.6-1.4-8.9-3.7c-2.3-2.3-3.7-5.4-3.7-8.9c0-3.5,1.4-6.6,3.7-8.9c2.3-2.3,5.4-3.7,8.9-3.7s6.6,1.4,8.9,3.7
	c2.3,2.3,3.7,5.4,3.7,8.9c0,3.5-1.4,6.6-3.7,8.9C44,34.7,40.9,36.2,37.4,36.2z"/>
<path fill="#FFFFFF" stroke="#4A538A" stroke-width="0.494" stroke-miterlimit="2.613" d="M38.7,17.4v-0.5h-0.5v0.5H38.7z
	 M33.9,17.4v-0.5h-0.5v0.5H33.9z M34.4,17.4v-0.5h-0.5v0.5H34.4z M37.1,17.4v-0.5h-0.5v0.5H37.1z M36.6,17.4v-0.5H36v0.5H36.6z
	 M37.7,17.4v-0.5h-0.5v0.5H37.7z"/>
<path fill="#FFFFFF" stroke="#4A538A" stroke-width="0.494" stroke-miterlimit="2.613" d="M38.2,17.4v-0.5h-0.5v0.5H38.2z
	 M39.3,17.4v-0.5h-0.5v0.5H39.3z M43.1,17.9h0.5v-0.5h-0.5V17.9z M43.1,17.4v-0.5h-0.5v0.5H43.1z M43.6,17.4v-0.5h-0.5v0.5H43.6z"/>
<path fill="#FFFFFF" stroke="#4A538A" stroke-width="0.494" stroke-miterlimit="2.613" d="M42.5,17.4v-0.5H42v0.5H42.5z M43.1,19
	h0.5v-0.5h-0.5V19z"/>
<path fill="#FFFFFF" stroke="#4A538A" stroke-width="0.494" stroke-miterlimit="2.613" d="M43.1,18.4h0.5v-0.5h-0.5V18.4z
	 M43.1,19.5h0.5V19h-0.5V19.5z M43.1,20.1h0.5v-0.5h-0.5V20.1z M42,17.4v-0.5h-0.5v0.5H42z M40.4,17.4v-0.5h-0.5v0.5H40.4z M36,21.7
	h-0.5v0.5H36V21.7z M39.8,17.4v-0.5h-0.5v0.5H39.8z M36,22.2h-0.5v0.5H36V22.2z M36,23.8h-0.5v0.5H36V23.8z M36,23.3h-0.5v0.5H36
	V23.3z"/>
<path fill="#FFFFFF" stroke="#4A538A" stroke-width="0.494" stroke-miterlimit="2.613" d="M36,22.8h-0.5v0.5H36V22.8z M38.2,29.8
	v0.5h0.5v-0.5H38.2z M31.7,29.8v0.5h0.5v-0.5H31.7z M31.2,28.7h-0.5v0.5h0.5V28.7z M31.2,28.2h-0.5v0.5h0.5V28.2z"/>
<path fill="#FFFFFF" stroke="#4A538A" stroke-width="0.494" stroke-miterlimit="2.613" d="M31.2,29.8v0.5h0.5v-0.5H31.2z"/>
<path fill="#FFFFFF" stroke="#4A538A" stroke-width="0.494" stroke-miterlimit="2.613" d="M31.2,29.2h-0.5v0.5h0.5V29.2z M39.3,29.8
	v0.5h0.5v-0.5H39.3z M31.2,27.6h-0.5v0.5h0.5V27.6z M37.7,29.8v0.5h0.5v-0.5H37.7z"/>
<path fill="#FFFFFF" stroke="#4A538A" stroke-width="0.494" stroke-miterlimit="2.613" d="M30.7,29.8v0.5h0.5v-0.5H30.7z M31.2,20.6
	h-0.5v0.5h0.5V20.6z"/>
<path fill="#FFFFFF" stroke="#4A538A" stroke-width="0.494" stroke-miterlimit="2.613" d="M31.2,20.1h-0.5v0.5h0.5V20.1z M31.2,27.1
	h-0.5v0.5h0.5V27.1z M31.2,19.5h-0.5v0.5h0.5V19.5z"/>
<path fill="#FFFFFF" stroke="#4A538A" stroke-width="0.494" stroke-miterlimit="2.613" d="M31.2,19h-0.5v0.5h0.5V19z M37.7,22.2
	v-0.5h-0.5v0.5H37.7z M37.1,22.2v-0.5h-0.5v0.5H37.1z M31.2,25.5h-0.5V26h0.5V25.5z"/>
<path fill="#FFFFFF" stroke="#4A538A" stroke-width="0.494" stroke-miterlimit="2.613" d="M31.2,26h-0.5v0.5h0.5V26z M31.2,26.5
	h-0.5v0.5h0.5V26.5z M36.6,22.2v-0.5H36v0.5H36.6z M33.9,17.9v-0.5h-0.5v0.5H33.9z M33.3,17.9v-0.5h-0.5v0.5H33.3z M37.1,17.9v-0.5
	h-0.5v0.5H37.1z M37.7,17.9v-0.5h-0.5v0.5H37.7z"/>
<path fill="#FFFFFF" stroke="#4A538A" stroke-width="0.494" stroke-miterlimit="2.613" d="M38.2,17.9v-0.5h-0.5v0.5H38.2z
	 M36.6,17.9v-0.5H36v0.5H36.6z M38.7,17.9v-0.5h-0.5v0.5H38.7z M31.7,18.4h-0.5V19h0.5V18.4z"/>
<path fill="#FFFFFF" stroke="#4A538A" stroke-width="0.494" stroke-miterlimit="2.613" d="M31.7,19h-0.5v0.5h0.5V19z"/>
<path fill="#FFFFFF" stroke="#4A538A" stroke-width="0.494" stroke-miterlimit="2.613" d="M31.7,19.5h-0.5v0.5h0.5V19.5z M31.7,20.1
	h-0.5v0.5h0.5V20.1z"/>
<path fill="#FFFFFF" stroke="#4A538A" stroke-width="0.494" stroke-miterlimit="2.613" d="M31.7,20.6h-0.5v0.5h0.5V20.6z M42.5,23.8
	h0.5v-0.5h-0.5V23.8z"/>
<path fill="#FFFFFF" stroke="#4A538A" stroke-width="0.494" stroke-miterlimit="2.613" d="M42.5,24.4h0.5v-0.5h-0.5V24.4z"/>
<path fill="#FFFFFF" stroke="#4A538A" stroke-width="0.494" stroke-miterlimit="2.613" d="M42.5,24.9h0.5v-0.5h-0.5V24.9z
	 M42.5,23.3h0.5v-0.5h-0.5V23.3z M42.5,22.8h0.5v-0.5h-0.5V22.8z"/>
<path fill="#FFFFFF" stroke="#4A538A" stroke-width="0.494" stroke-miterlimit="2.613" d="M42.5,22.2h0.5v-0.5h-0.5V22.2z
	 M42.5,25.5h0.5v-0.5h-0.5V25.5z M42.5,28.2h0.5v-0.5h-0.5V28.2z"/>
<path fill="#FFFFFF" stroke="#4A538A" stroke-width="0.494" stroke-miterlimit="2.613" d="M42.5,26h0.5v-0.5h-0.5V26z M42.5,21.7
	h0.5v-0.5h-0.5V21.7z M42.5,20.1h0.5v-0.5h-0.5V20.1z M42.5,17.9v-0.5H42v0.5H42.5z M42.5,21.1h0.5v-0.5h-0.5V21.1z M39.8,17.9v-0.5
	h-0.5v0.5H39.8z M40.4,17.9v-0.5h-0.5v0.5H40.4z"/>
<path fill="#FFFFFF" stroke="#4A538A" stroke-width="0.494" stroke-miterlimit="2.613" d="M39.3,17.9v-0.5h-0.5v0.5H39.3z
	 M43.1,17.9v-0.5h-0.5v0.5H43.1z M42.5,19.5h0.5V19h-0.5V19.5z M42.5,20.6h0.5v-0.5h-0.5V20.6z"/>
<path fill="#FFFFFF" stroke="#4A538A" stroke-width="0.494" stroke-miterlimit="2.613" d="M42.5,19h0.5v-0.5h-0.5V19z"/>
<path fill="#FFFFFF" stroke="#4A538A" stroke-width="0.494" stroke-miterlimit="2.613" d="M42.5,18.4h0.5v-0.5h-0.5V18.4z
	 M43.1,23.3h0.5v-0.5h-0.5V23.3z M36,24.4h-0.5v0.5H36V24.4z"/>
<path fill="#FFFFFF" stroke="#4A538A" stroke-width="0.494" stroke-miterlimit="2.613" d="M35.5,24.9v0.5H36v-0.5H35.5z M43.1,29.2
	h0.5v-0.5h-0.5V29.2z M43.1,28.7h0.5v-0.5h-0.5V28.7z M36,24.9v0.5h0.5v-0.5H36z M38.2,24.9v0.5h0.5v-0.5H38.2z M42.5,29.2v0.5h0.5
	v-0.5H42.5z M42,29.2v0.5h0.5v-0.5H42z"/>
<path fill="#FFFFFF" stroke="#4A538A" stroke-width="0.494" stroke-miterlimit="2.613" d="M38.7,24.9h0.5v-0.5h-0.5V24.9z
	 M37.1,24.9v0.5h0.5v-0.5H37.1z M36.6,24.9v0.5h0.5v-0.5H36.6z M37.7,24.9v0.5h0.5v-0.5H37.7z M43.1,21.7h0.5v-0.5h-0.5V21.7z
	 M43.1,22.2h0.5v-0.5h-0.5V22.2z"/>
<path fill="#FFFFFF" stroke="#4A538A" stroke-width="0.494" stroke-miterlimit="2.613" d="M43.1,22.8h0.5v-0.5h-0.5V22.8z
	 M43.1,20.6h0.5v-0.5h-0.5V20.6z M43.1,23.8h0.5v-0.5h-0.5V23.8z M41.4,29.2v0.5H42v-0.5H41.4z"/>
<path fill="#FFFFFF" stroke="#4A538A" stroke-width="0.494" stroke-miterlimit="2.613" d="M43.1,21.1h0.5v-0.5h-0.5V21.1z
	 M43.1,24.4h0.5v-0.5h-0.5V24.4z"/>
<path fill="#FFFFFF" stroke="#4A538A" stroke-width="0.494" stroke-miterlimit="2.613" d="M43.1,24.9h0.5v-0.5h-0.5V24.9z
	 M43.1,25.5h0.5v-0.5h-0.5V25.5z M43.1,28.2h0.5v-0.5h-0.5V28.2z M31.2,29.2v0.5h0.5v-0.5H31.2z M31.7,28.2h-0.5v0.5h0.5V28.2z
	 M31.7,28.7h-0.5v0.5h0.5V28.7z"/>
<path fill="#FFFFFF" stroke="#4A538A" stroke-width="0.494" stroke-miterlimit="2.613" d="M31.7,29.2v0.5h0.5v-0.5H31.7z M32.3,29.2
	v0.5h0.5v-0.5H32.3z M42.5,28.7h0.5v-0.5h-0.5V28.7z M38.7,25.5h0.5v-0.5h-0.5V25.5z M31.7,26.5h-0.5v0.5h0.5V26.5z"/>
<path fill="#FFFFFF" stroke="#4A538A" stroke-width="0.494" stroke-miterlimit="2.613" d="M31.7,27.1h-0.5v0.5h0.5V27.1z M31.7,27.6
	h-0.5v0.5h0.5V27.6z M39.3,29.2v0.5h0.5v-0.5H39.3z M36,29.2v0.5h0.5v-0.5H36z M31.7,26h-0.5v0.5h0.5V26z M37.1,16.3v-0.5h-0.5v0.5
	H37.1z M40.4,16.3v-0.5h-0.5v0.5H40.4z M39.8,16.3v-0.5h-0.5v0.5H39.8z M38.7,16.3v-0.5h-0.5v0.5H38.7z M37.7,16.3v-0.5h-0.5v0.5
	H37.7z"/>
<path fill="#FFFFFF" stroke="#4A538A" stroke-width="0.494" stroke-miterlimit="2.613" d="M38.2,16.3v-0.5h-0.5v0.5H38.2z
	 M39.3,16.3v-0.5h-0.5v0.5H39.3z M44.1,16.3v-0.5h-0.5v0.5H44.1z M42.5,16.3v-0.5H42v0.5H42.5z"/>
<path fill="#FFFFFF" stroke="#4A538A" stroke-width="0.494" stroke-miterlimit="2.613" d="M43.6,16.3v-0.5h-0.5v0.5H43.6z M42,16.3
	v-0.5h-0.5v0.5H42z M43.1,16.3v-0.5h-0.5v0.5H43.1z M33.3,16.3v-0.5h-0.5v0.5H33.3z M36.6,16.3v-0.5H36v0.5H36.6z"/>
<path fill="#FFFFFF" stroke="#4A538A" stroke-width="0.494" stroke-miterlimit="2.613" d="M41.4,16.3v-0.5h-0.5v0.5H41.4z
	 M44.7,16.3v-0.5h-0.5v0.5H44.7z M44.1,26h0.5v-0.5h-0.5V26z M44.1,24.9h0.5v-0.5h-0.5V24.9z M44.1,23.3h0.5v-0.5h-0.5V23.3z
	 M44.1,23.8h0.5v-0.5h-0.5V23.8z"/>
<path fill="#FFFFFF" stroke="#4A538A" stroke-width="0.494" stroke-miterlimit="2.613" d="M44.1,24.4h0.5v-0.5h-0.5V24.4z
	 M44.1,29.2h0.5v-0.5h-0.5V29.2z M44.1,28.7h0.5v-0.5h-0.5V28.7z M44.1,27.6h0.5v-0.5h-0.5V27.6z"/>
<path fill="#FFFFFF" stroke="#4A538A" stroke-width="0.494" stroke-miterlimit="2.613" d="M44.1,28.2h0.5v-0.5h-0.5V28.2z
	 M44.1,25.5h0.5v-0.5h-0.5V25.5z M44.1,17.9h0.5v-0.5h-0.5V17.9z M44.1,18.4h0.5v-0.5h-0.5V18.4z M44.1,19.5h0.5V19h-0.5V19.5z"/>
<path fill="#FFFFFF" stroke="#4A538A" stroke-width="0.494" stroke-miterlimit="2.613" d="M44.1,19h0.5v-0.5h-0.5V19z M44.1,16.8
	h0.5v-0.5h-0.5V16.8z"/>
<path fill="#FFFFFF" stroke="#4A538A" stroke-width="0.494" stroke-miterlimit="2.613" d="M44.1,17.4h0.5v-0.5h-0.5V17.4z
	 M44.1,20.6h0.5v-0.5h-0.5V20.6z M44.1,22.2h0.5v-0.5h-0.5V22.2z M44.1,21.7h0.5v-0.5h-0.5V21.7z"/>
<path fill="#FFFFFF" stroke="#4A538A" stroke-width="0.494" stroke-miterlimit="2.613" d="M44.1,20.1h0.5v-0.5h-0.5V20.1z
	 M44.1,22.8h0.5v-0.5h-0.5V22.8z M44.1,21.1h0.5v-0.5h-0.5V21.1z M44.1,30.3h0.5v-0.5h-0.5V30.3z M42.5,30.9v0.5h0.5v-0.5H42.5z
	 M30.1,26h-0.5v0.5h0.5V26z M30.1,26.5h-0.5v0.5h0.5V26.5z M30.1,28.7h-0.5v0.5h0.5V28.7z M30.1,28.2h-0.5v0.5h0.5V28.2z"/>
<path fill="#FFFFFF" stroke="#4A538A" stroke-width="0.494" stroke-miterlimit="2.613" d="M30.1,27.6h-0.5v0.5h0.5V27.6z M30.1,29.2
	h-0.5v0.5h0.5V29.2z"/>
<path fill="#FFFFFF" stroke="#4A538A" stroke-width="0.494" stroke-miterlimit="2.613" d="M30.1,29.8h-0.5v0.5h0.5V29.8z"/>
<path fill="#FFFFFF" stroke="#4A538A" stroke-width="0.494" stroke-miterlimit="2.613" d="M30.1,30.3h-0.5v0.5h0.5V30.3z M30.1,25.5
	h-0.5V26h0.5V25.5z M30.1,27.1h-0.5v0.5h0.5V27.1z M42,16.8v-0.5h-0.5v0.5H42z M42.5,16.8v-0.5H42v0.5H42.5z M39.8,16.8v-0.5h-0.5
	v0.5H39.8z M40.4,16.8v-0.5h-0.5v0.5H40.4z M43.6,17.9h0.5v-0.5h-0.5V17.9z M43.6,17.4h0.5v-0.5h-0.5V17.4z"/>
<path fill="#FFFFFF" stroke="#4A538A" stroke-width="0.494" stroke-miterlimit="2.613" d="M39.3,16.8v-0.5h-0.5v0.5H39.3z M43.6,19
	h0.5v-0.5h-0.5V19z M43.6,16.8v-0.5h-0.5v0.5H43.6z"/>
<path fill="#FFFFFF" stroke="#4A538A" stroke-width="0.494" stroke-miterlimit="2.613" d="M44.1,16.8v-0.5h-0.5v0.5H44.1z
	 M43.6,18.4h0.5v-0.5h-0.5V18.4z M44.1,30.9h0.5v-0.5h-0.5V30.9z M38.2,16.8v-0.5h-0.5v0.5H38.2z"/>
<path fill="#FFFFFF" stroke="#4A538A" stroke-width="0.494" stroke-miterlimit="2.613" d="M37.7,16.8v-0.5h-0.5v0.5H37.7z
	 M37.1,16.8v-0.5h-0.5v0.5H37.1z M38.7,16.8v-0.5h-0.5v0.5H38.7z M36.6,16.8v-0.5H36v0.5H36.6z M43.1,16.8v-0.5h-0.5v0.5H43.1z
	 M43.6,28.7h0.5v-0.5h-0.5V28.7z"/>
<path fill="#FFFFFF" stroke="#4A538A" stroke-width="0.494" stroke-miterlimit="2.613" d="M43.6,28.2h0.5v-0.5h-0.5V28.2z
	 M43.6,29.2h0.5v-0.5h-0.5V29.2z"/>
<path fill="#FFFFFF" stroke="#4A538A" stroke-width="0.494" stroke-miterlimit="2.613" d="M43.6,27.6h0.5v-0.5h-0.5V27.6z
	 M43.6,30.3h0.5v-0.5h-0.5V30.3z M38.2,22.2v-0.5h-0.5v0.5H38.2z M42,29.8v0.5h0.5v-0.5H42z M42.5,29.8v0.5h0.5v-0.5H42.5z
	 M43.6,19.5h0.5V19h-0.5V19.5z M38.7,22.2v-0.5h-0.5v0.5H38.7z M43.6,21.1h0.5v-0.5h-0.5V21.1z M43.6,22.8h0.5v-0.5h-0.5V22.8z"/>
<path fill="#FFFFFF" stroke="#4A538A" stroke-width="0.494" stroke-miterlimit="2.613" d="M43.6,22.2h0.5v-0.5h-0.5V22.2z
	 M43.6,21.7h0.5v-0.5h-0.5V21.7z M43.6,20.6h0.5v-0.5h-0.5V20.6z"/>
<path fill="#FFFFFF" stroke="#4A538A" stroke-width="0.494" stroke-miterlimit="2.613" d="M43.6,20.1h0.5v-0.5h-0.5V20.1z
	 M43.6,25.5h0.5v-0.5h-0.5V25.5z M43.6,24.9h0.5v-0.5h-0.5V24.9z M43.6,23.3h0.5v-0.5h-0.5V23.3z M43.6,23.8h0.5v-0.5h-0.5V23.8z"/>
<path fill="#FFFFFF" stroke="#4A538A" stroke-width="0.494" stroke-miterlimit="2.613" d="M43.6,24.4h0.5v-0.5h-0.5V24.4z
	 M30.1,30.3v0.5h0.5v-0.5H30.1z M42.5,30.3v0.5h0.5v-0.5H42.5z M42,30.3v0.5h0.5v-0.5H42z M37.7,30.3v0.5h0.5v-0.5H37.7z M43.6,30.3
	v0.5h0.5v-0.5H43.6z"/>
<path fill="#FFFFFF" stroke="#4A538A" stroke-width="0.494" stroke-miterlimit="2.613" d="M38.2,30.3v0.5h0.5v-0.5H38.2z"/>
<path fill="#FFFFFF" stroke="#4A538A" stroke-width="0.494" stroke-miterlimit="2.613" d="M38.7,30.3v0.5h0.5v-0.5H38.7z M30.7,20.6
	h-0.5v0.5h0.5V20.6z"/>
<path fill="#FFFFFF" stroke="#4A538A" stroke-width="0.494" stroke-miterlimit="2.613" d="M30.7,20.1h-0.5v0.5h0.5V20.1z M30.7,26
	h-0.5v0.5h0.5V26z M30.7,27.6h-0.5v0.5h0.5V27.6z"/>
<path fill="#FFFFFF" stroke="#4A538A" stroke-width="0.494" stroke-miterlimit="2.613" d="M30.7,28.2h-0.5v0.5h0.5V28.2z M30.7,29.2
	h-0.5v0.5h0.5V29.2z M30.7,28.7h-0.5v0.5h0.5V28.7z M30.7,26.5h-0.5v0.5h0.5V26.5z"/>
<path fill="#FFFFFF" stroke="#4A538A" stroke-width="0.494" stroke-miterlimit="2.613" d="M30.7,27.1h-0.5v0.5h0.5V27.1z M30.7,25.5
	h-0.5V26h0.5V25.5z M30.7,29.8h-0.5v0.5h0.5V29.8z M38.7,26v0.5h0.5V26H38.7z M36,27.1v0.5h0.5v-0.5H36z M37.7,27.1v0.5h0.5v-0.5
	H37.7z M37.1,27.1v0.5h0.5v-0.5H37.1z"/>
<path fill="#FFFFFF" stroke="#4A538A" stroke-width="0.494" stroke-miterlimit="2.613" d="M38.2,27.1v0.5h0.5v-0.5H38.2z M39.8,21.1
	v-0.5h-0.5v0.5H39.8z"/>
<path fill="#FFFFFF" stroke="#4A538A" stroke-width="0.494" stroke-miterlimit="2.613" d="M39.3,21.1v-0.5h-0.5v0.5H39.3z
	 M38.2,21.1v-0.5h-0.5v0.5H38.2z"/>
<path fill="#FFFFFF" stroke="#4A538A" stroke-width="0.494" stroke-miterlimit="2.613" d="M38.7,21.1v-0.5h-0.5v0.5H38.7z
	 M40.9,24.4h0.5v-0.5h-0.5V24.4z"/>
<path fill="#FFFFFF" stroke="#4A538A" stroke-width="0.494" stroke-miterlimit="2.613" d="M40.9,23.8h0.5v-0.5h-0.5V23.8z
	 M40.9,24.9h0.5v-0.5h-0.5V24.9z M40.9,22.8h0.5v-0.5h-0.5V22.8z M40.9,23.3h0.5v-0.5h-0.5V23.3z M40.9,25.5h0.5v-0.5h-0.5V25.5z
	 M40.9,26.5h0.5V26h-0.5V26.5z M40.9,27.6h0.5v-0.5h-0.5V27.6z"/>
<path fill="#FFFFFF" stroke="#4A538A" stroke-width="0.494" stroke-miterlimit="2.613" d="M40.4,27.1v0.5h0.5v-0.5H40.4z M40.9,26
	h0.5v-0.5h-0.5V26z M40.9,22.2h0.5v-0.5h-0.5V22.2z"/>
<path fill="#FFFFFF" stroke="#4A538A" stroke-width="0.494" stroke-miterlimit="2.613" d="M40.9,27.1h0.5v-0.5h-0.5V27.1z
	 M39.8,27.1v0.5h0.5v-0.5H39.8z M33.9,19.5h-0.5v0.5h0.5V19.5z M33.9,21.7h-0.5v0.5h0.5V21.7z M33.9,20.1h-0.5v0.5h0.5V20.1z
	 M33.9,21.1h-0.5v0.5h0.5V21.1z"/>
<path fill="#FFFFFF" stroke="#4A538A" stroke-width="0.494" stroke-miterlimit="2.613" d="M33.9,20.6h-0.5v0.5h0.5V20.6z M34.4,20.1
	v-0.5h-0.5v0.5H34.4z M37.7,21.1v-0.5h-0.5v0.5H37.7z M37.1,20.1v-0.5h-0.5v0.5H37.1z M37.7,20.1v-0.5h-0.5v0.5H37.7z M33.9,26.5
	h-0.5v0.5h0.5V26.5z M33.9,26h-0.5v0.5h0.5V26z M33.9,27.1v0.5h0.5v-0.5H33.9z"/>
<path fill="#FFFFFF" stroke="#4A538A" stroke-width="0.494" stroke-miterlimit="2.613" d="M33.9,25.5h-0.5V26h0.5V25.5z M37.1,21.1
	v-0.5h-0.5v0.5H37.1z M36.6,21.1v-0.5H36v0.5H36.6z M33.9,24.9h-0.5v0.5h0.5V24.9z M33.9,22.8h-0.5v0.5h0.5V22.8z"/>
<path fill="#FFFFFF" stroke="#4A538A" stroke-width="0.494" stroke-miterlimit="2.613" d="M33.9,23.3h-0.5v0.5h0.5V23.3z M33.9,24.4
	h-0.5v0.5h0.5V24.4z"/>
<path fill="#FFFFFF" stroke="#4A538A" stroke-width="0.494" stroke-miterlimit="2.613" d="M33.9,23.8h-0.5v0.5h0.5V23.8z M33.3,24.9
	h-0.5v0.5h0.5V24.9z M33.3,19h-0.5v0.5h0.5V19z M34.4,19.5V19h-0.5v0.5H34.4z M38.7,19.5V19h-0.5v0.5H38.7z"/>
<path fill="#FFFFFF" stroke="#4A538A" stroke-width="0.494" stroke-miterlimit="2.613" d="M33.3,19.5h-0.5v0.5h0.5V19.5z M33.3,20.1
	h-0.5v0.5h0.5V20.1z"/>
<path fill="#FFFFFF" stroke="#4A538A" stroke-width="0.494" stroke-miterlimit="2.613" d="M33.3,20.6h-0.5v0.5h0.5V20.6z M37.1,19.5
	V19h-0.5v0.5H37.1z M38.2,19.5V19h-0.5v0.5H38.2z M32.8,27.6v0.5h0.5v-0.5H32.8z M33.9,19.5V19h-0.5v0.5H33.9z M33.3,25.5h-0.5V26
	h0.5V25.5z M33.3,24.4h-0.5v0.5h0.5V24.4z"/>
<path fill="#FFFFFF" stroke="#4A538A" stroke-width="0.494" stroke-miterlimit="2.613" d="M33.3,26h-0.5v0.5h0.5V26z M38.7,20.1
	v-0.5h-0.5v0.5H38.7z M33.3,26.5h-0.5v0.5h0.5V26.5z"/>
<path fill="#FFFFFF" stroke="#4A538A" stroke-width="0.494" stroke-miterlimit="2.613" d="M33.3,27.1h-0.5v0.5h0.5V27.1z M33.3,23.8
	h-0.5v0.5h0.5V23.8z M33.3,21.7h-0.5v0.5h0.5V21.7z M33.3,21.1h-0.5v0.5h0.5V21.1z M33.3,22.8h-0.5v0.5h0.5V22.8z"/>
<path fill="#FFFFFF" stroke="#4A538A" stroke-width="0.494" stroke-miterlimit="2.613" d="M33.3,23.3h-0.5v0.5h0.5V23.3z M39.3,24.9
	h0.5v-0.5h-0.5V24.9z M39.3,22.2h0.5v-0.5h-0.5V22.2z M39.3,21.7h0.5v-0.5h-0.5V21.7z M39.8,19.5V19h-0.5v0.5H39.8z"/>
<path fill="#FFFFFF" stroke="#4A538A" stroke-width="0.494" stroke-miterlimit="2.613" d="M39.3,22.8h0.5v-0.5h-0.5V22.8z
	 M39.3,23.3h0.5v-0.5h-0.5V23.3z M39.3,23.8h0.5v-0.5h-0.5V23.8z M40.9,21.1h0.5v-0.5h-0.5V21.1z"/>
<path fill="#FFFFFF" stroke="#4A538A" stroke-width="0.494" stroke-miterlimit="2.613" d="M40.9,20.6h0.5v-0.5h-0.5V20.6z
	 M41.4,19.5V19h-0.5v0.5H41.4z"/>
<path fill="#FFFFFF" stroke="#4A538A" stroke-width="0.494" stroke-miterlimit="2.613" d="M40.9,20.1h0.5v-0.5h-0.5V20.1z
	 M39.3,19.5V19h-0.5v0.5H39.3z M38.7,25.5V26h0.5v-0.5H38.7z"/>
<path fill="#FFFFFF" stroke="#4A538A" stroke-width="0.494" stroke-miterlimit="2.613" d="M39.3,26h0.5v-0.5h-0.5V26z"/>
<path fill="#FFFFFF" stroke="#4A538A" stroke-width="0.494" stroke-miterlimit="2.613" d="M39.3,25.5h0.5v-0.5h-0.5V25.5z
	 M40.9,21.7h0.5v-0.5h-0.5V21.7z M38.2,25.5V26h0.5v-0.5H38.2z"/>
<path fill="#FFFFFF" stroke="#4A538A" stroke-width="0.494" stroke-miterlimit="2.613" d="M37.7,25.5V26h0.5v-0.5H37.7z M39.3,24.4
	h0.5v-0.5h-0.5V24.4z M39.8,25.5h0.5v-0.5h-0.5V25.5z M34.4,24.9h-0.5v0.5h0.5V24.9z"/>
<path fill="#FFFFFF" stroke="#4A538A" stroke-width="0.494" stroke-miterlimit="2.613" d="M39.8,26h0.5v-0.5h-0.5V26z M39.3,26v0.5
	h0.5V26H39.3z M39.8,26.5h0.5V26h-0.5V26.5z M39.8,24.9h0.5v-0.5h-0.5V24.9z M34.4,22.8h-0.5v0.5h0.5V22.8z M34.4,24.4h-0.5v0.5h0.5
	V24.4z M34.4,21.7h-0.5v0.5h0.5V21.7z"/>
<path fill="#FFFFFF" stroke="#4A538A" stroke-width="0.494" stroke-miterlimit="2.613" d="M34.4,23.3h-0.5v0.5h0.5V23.3z M34.4,23.8
	h-0.5v0.5h0.5V23.8z"/>
<path fill="#FFFFFF" stroke="#4A538A" stroke-width="0.494" stroke-miterlimit="2.613" d="M35,24.4h-0.5v0.5H35V24.4z M37.7,26v0.5
	h0.5V26H37.7z M35,25.5h-0.5V26H35V25.5z"/>
<path fill="#FFFFFF" stroke="#4A538A" stroke-width="0.494" stroke-miterlimit="2.613" d="M35,24.9h-0.5v0.5H35V24.9z M35,23.8h-0.5
	v0.5H35V23.8z M34.4,26v0.5H35V26H34.4z M36.6,26v0.5h0.5V26H36.6z M37.1,26v0.5h0.5V26H37.1z"/>
<path fill="#FFFFFF" stroke="#4A538A" stroke-width="0.494" stroke-miterlimit="2.613" d="M35,26v0.5h0.5V26H35z M36,26v0.5h0.5V26
	H36z M34.4,21.1h-0.5v0.5h0.5V21.1z"/>
<path fill="#FFFFFF" stroke="#4A538A" stroke-width="0.494" stroke-miterlimit="2.613" d="M35.5,26v0.5H36V26H35.5z M39.8,21.1h0.5
	v-0.5h-0.5V21.1z M39.8,23.3h0.5v-0.5h-0.5V23.3z M39.8,21.7h0.5v-0.5h-0.5V21.7z M39.8,22.2h0.5v-0.5h-0.5V22.2z M39.8,24.4h0.5
	v-0.5h-0.5V24.4z"/>
<path fill="#FFFFFF" stroke="#4A538A" stroke-width="0.494" stroke-miterlimit="2.613" d="M39.8,22.8h0.5v-0.5h-0.5V22.8z
	 M29.6,14.3c-0.2,0.1-0.3,0.3-0.5,0.4h0.5V14.3z M45.2,14.3v0.4h0.4C45.5,14.5,45.4,14.4,45.2,14.3z M37.1,20.6v-0.5h-0.5v0.5H37.1z
	 M34.4,20.1h-0.5v0.5h0.5V20.1z M37.7,20.6v-0.5h-0.5v0.5H37.7z"/>
<path fill="#FFFFFF" stroke="#4A538A" stroke-width="0.494" stroke-miterlimit="2.613" d="M34.4,20.6h-0.5v0.5h0.5V20.6z M40.4,27.1
	h0.5v-0.5h-0.5V27.1z M35,21.7h-0.5v0.5H35V21.7z"/>
<path fill="#FFFFFF" stroke="#4A538A" stroke-width="0.494" stroke-miterlimit="2.613" d="M35,21.1h-0.5v0.5H35V21.1z"/>
<path fill="#FFFFFF" stroke="#4A538A" stroke-width="0.494" stroke-miterlimit="2.613" d="M35,20.6h-0.5v0.5H35V20.6z M46.2,15.2
	c-0.1-0.1-0.3-0.3-0.4-0.4v0.4H46.2z M40.4,21.7h0.5v-0.5h-0.5V21.7z M35,23.3h-0.5v0.5H35V23.3z"/>
<path fill="#FFFFFF" stroke="#4A538A" stroke-width="0.494" stroke-miterlimit="2.613" d="M35,22.8h-0.5v0.5H35V22.8z M40.4,22.2
	h0.5v-0.5h-0.5V22.2z M37.1,23.3h-0.5v0.5h0.5V23.3z M36.6,23.8v0.5h0.5v-0.5H36.6z M37.1,23.8v0.5h0.5v-0.5H37.1z M45.8,23.8v-0.5
	h-0.5v0.5H45.8z M46.7,15.7c-0.1-0.1-0.2-0.3-0.4-0.4v0.4H46.7z"/>
<path fill="#FFFFFF" stroke="#4A538A" stroke-width="0.494" stroke-miterlimit="2.613" d="M37.1,22.8h-0.5v0.5h0.5V22.8z M37.1,23.8
	h0.5v-0.5h-0.5V23.8z M37.7,23.3v-0.5h-0.5v0.5H37.7z M28.6,15.2H29v-0.5C28.9,14.9,28.7,15,28.6,15.2z M34.4,26.5v0.5H35v-0.5H34.4
	z"/>
<path fill="#FFFFFF" stroke="#4A538A" stroke-width="0.494" stroke-miterlimit="2.613" d="M35,26.5v0.5h0.5v-0.5H35z"/>
<path fill="#FFFFFF" stroke="#4A538A" stroke-width="0.494" stroke-miterlimit="2.613" d="M35.5,26.5v0.5H36v-0.5H35.5z M36.6,26.5
	v0.5h0.5v-0.5H36.6z M37.1,26.5v0.5h0.5v-0.5H37.1z M37.7,26.5v0.5h0.5v-0.5H37.7z M30.1,13.8c-0.1,0.1-0.2,0.2-0.4,0.3h0.4V13.8z
	 M40.4,22.8h0.5v-0.5h-0.5V22.8z M44.7,13.9v0.3H45C44.9,14,44.8,13.9,44.7,13.9z M34.4,25.5h-0.5V26h0.5V25.5z"/>
<path fill="#FFFFFF" stroke="#4A538A" stroke-width="0.494" stroke-miterlimit="2.613" d="M34.4,26h-0.5v0.5h0.5V26z M33.9,26.5v0.5
	h0.5v-0.5H33.9z M40.4,24.9h0.5v-0.5h-0.5V24.9z M40.4,25.5h0.5v-0.5h-0.5V25.5z"/>
<path fill="#FFFFFF" stroke="#4A538A" stroke-width="0.494" stroke-miterlimit="2.613" d="M40.4,26h0.5v-0.5h-0.5V26z M40.4,24.4
	h0.5v-0.5h-0.5V24.4z"/>
<path fill="#FFFFFF" stroke="#4A538A" stroke-width="0.494" stroke-miterlimit="2.613" d="M40.4,23.8h0.5v-0.5h-0.5V23.8z
	 M40.4,23.3h0.5v-0.5h-0.5V23.3z M40.4,26.5h0.5V26h-0.5V26.5z M39.3,26.5v0.5h0.5v-0.5H39.3z M39.3,20.1v-0.5h-0.5v0.5H39.3z
	 M39.8,26.5v0.5h0.5v-0.5H39.8z M39.8,23.8h0.5v-0.5h-0.5V23.8z M38.7,18.4v-0.5h-0.5v0.5H38.7L38.7,18.4z M33.3,27.6v0.5h0.5v-0.5
	H33.3z M42,21.7h0.5v-0.5H42V21.7z M39.8,18.4v-0.5h-0.5v0.5H39.8L39.8,18.4z"/>
<path fill="#FFFFFF" stroke="#4A538A" stroke-width="0.494" stroke-miterlimit="2.613" d="M39.3,18.4v-0.5h-0.5v0.5H39.3L39.3,18.4z
	 M42,20.6h0.5v-0.5H42V20.6z"/>
<path fill="#FFFFFF" stroke="#4A538A" stroke-width="0.494" stroke-miterlimit="2.613" d="M42,21.1h0.5v-0.5H42V21.1z M42,20.1h0.5
	v-0.5H42V20.1z M42.5,18.4v-0.5H42v0.5H42.5L42.5,18.4z M42,19.5h0.5V19H42V19.5z"/>
<path fill="#FFFFFF" stroke="#4A538A" stroke-width="0.494" stroke-miterlimit="2.613" d="M42,19h0.5v-0.5H42V19z M33.3,18.4v-0.5
	h-0.5v0.5H33.3L33.3,18.4z M34.4,18.4v-0.5h-0.5v0.5H34.4L34.4,18.4z M33.9,18.4v-0.5h-0.5v0.5H33.9L33.9,18.4z M37.1,18.4v-0.5
	h-0.5v0.5H37.1L37.1,18.4z M38.7,21.7v-0.5h-0.5v0.5H38.7z M42,23.3h0.5v-0.5H42V23.3z M42,26h0.5v-0.5H42V26z M42,26.5h0.5V26H42
	V26.5z M42,24.9h0.5v-0.5H42V24.9z"/>
<path fill="#FFFFFF" stroke="#4A538A" stroke-width="0.494" stroke-miterlimit="2.613" d="M42,24.4h0.5v-0.5H42V24.4z"/>
<path fill="#FFFFFF" stroke="#4A538A" stroke-width="0.494" stroke-miterlimit="2.613" d="M42,23.8h0.5v-0.5H42V23.8z M42,25.5h0.5
	v-0.5H42V25.5z M42,28.7h0.5v-0.5H42V28.7z"/>
<path fill="#FFFFFF" stroke="#4A538A" stroke-width="0.494" stroke-miterlimit="2.613" d="M41.4,28.2v0.5H42v-0.5H41.4z"/>
<path fill="#FFFFFF" stroke="#4A538A" stroke-width="0.494" stroke-miterlimit="2.613" d="M40.9,28.2v0.5h0.5v-0.5H40.9z M42,27.1
	h0.5v-0.5H42V27.1z M42,28.2h0.5v-0.5H42V28.2z"/>
<path fill="#FFFFFF" stroke="#4A538A" stroke-width="0.494" stroke-miterlimit="2.613" d="M42,27.6h0.5v-0.5H42V27.6z M38.2,21.7
	v-0.5h-0.5v0.5H38.2z"/>
<path fill="#FFFFFF" stroke="#4A538A" stroke-width="0.494" stroke-miterlimit="2.613" d="M37.7,21.7v-0.5h-0.5v0.5H37.7z
	 M37.1,21.7v-0.5h-0.5v0.5H37.1z M32.3,18.4h-0.5V19h0.5V18.4z M39.3,21.7v-0.5h-0.5v0.5H39.3z M38.7,22.2h0.5v-0.5h-0.5V22.2z
	 M42,22.8h0.5v-0.5H42V22.8z"/>
<path fill="#FFFFFF" stroke="#4A538A" stroke-width="0.494" stroke-miterlimit="2.613" d="M42,22.2h0.5v-0.5H42V22.2z M36,21.7v-0.5
	h-0.5v0.5H36z M38.7,22.8h0.5v-0.5h-0.5V22.8z"/>
<path fill="#FFFFFF" stroke="#4A538A" stroke-width="0.494" stroke-miterlimit="2.613" d="M36.6,21.7v-0.5H36v0.5H36.6z M37.1,24.4
	v0.5h0.5v-0.5H37.1z M36,28.7v0.5h0.5v-0.5H36z M32.3,27.1h-0.5v0.5h0.5V27.1z M32.3,28.2h-0.5v0.5h0.5V28.2z"/>
<path fill="#FFFFFF" stroke="#4A538A" stroke-width="0.494" stroke-miterlimit="2.613" d="M32.3,27.6h-0.5v0.5h0.5V27.6z M31.7,28.7
	v0.5h0.5v-0.5H31.7z M32.3,28.7v0.5h0.5v-0.5H32.3z M40.9,28.7v0.5h0.5v-0.5H40.9z M38.2,22.8h0.5v-0.5h-0.5V22.8z M38.2,23.3h0.5
	v-0.5h-0.5V23.3z"/>
<path fill="#FFFFFF" stroke="#4A538A" stroke-width="0.494" stroke-miterlimit="2.613" d="M41.4,28.7v0.5H42v-0.5H41.4z M38.2,23.8
	h0.5v-0.5h-0.5V23.8z"/>
<path fill="#FFFFFF" stroke="#4A538A" stroke-width="0.494" stroke-miterlimit="2.613" d="M42,28.7v0.5h0.5v-0.5H42z M38.7,28.7v0.5
	h0.5v-0.5H38.7z M39.8,28.7v0.5h0.5v-0.5H39.8z"/>
<path fill="#FFFFFF" stroke="#4A538A" stroke-width="0.494" stroke-miterlimit="2.613" d="M39.3,28.7v0.5h0.5v-0.5H39.3z M38.7,24.4
	h0.5v-0.5h-0.5V24.4z M36.6,23.8H36v0.5h0.5V23.8z"/>
<path fill="#FFFFFF" stroke="#4A538A" stroke-width="0.494" stroke-miterlimit="2.613" d="M36,24.4v0.5h0.5v-0.5H36z M36.6,23.3H36
	v0.5h0.5V23.3z"/>
<path fill="#FFFFFF" stroke="#4A538A" stroke-width="0.494" stroke-miterlimit="2.613" d="M36.6,24.4v0.5h0.5v-0.5H36.6z M32.3,19
	h-0.5v0.5h0.5V19z M32.3,20.1h-0.5v0.5h0.5V20.1z"/>
<path fill="#FFFFFF" stroke="#4A538A" stroke-width="0.494" stroke-miterlimit="2.613" d="M32.3,19.5h-0.5v0.5h0.5V19.5z M38.7,23.8
	h0.5v-0.5h-0.5V23.8z M37.7,24.4v0.5h0.5v-0.5H37.7z M32.3,26.5h-0.5v0.5h0.5V26.5z M38.7,23.3h0.5v-0.5h-0.5V23.3z M32.3,23.3h-0.5
	v0.5h0.5V23.3z M32.3,26h-0.5v0.5h0.5V26z"/>
<path fill="#FFFFFF" stroke="#4A538A" stroke-width="0.494" stroke-miterlimit="2.613" d="M32.3,22.8h-0.5v0.5h0.5V22.8z M38.2,24.4
	h0.5v-0.5h-0.5V24.4z"/>
<path fill="#FFFFFF" stroke="#4A538A" stroke-width="0.494" stroke-miterlimit="2.613" d="M38.2,24.9h0.5v-0.5h-0.5V24.9z
	 M32.3,21.7h-0.5v0.5h0.5V21.7z M41.4,20.6H42v-0.5h-0.5V20.6z M41.4,21.7H42v-0.5h-0.5V21.7z"/>
<path fill="#FFFFFF" stroke="#4A538A" stroke-width="0.494" stroke-miterlimit="2.613" d="M41.4,20.1H42v-0.5h-0.5V20.1z M41.4,21.1
	H42v-0.5h-0.5V21.1z M42,19v-0.5h-0.5V19H42z"/>
<path fill="#FFFFFF" stroke="#4A538A" stroke-width="0.494" stroke-miterlimit="2.613" d="M41.4,19.5H42V19h-0.5V19.5z M41.4,24.9
	H42v-0.5h-0.5V24.9z"/>
<path fill="#FFFFFF" stroke="#4A538A" stroke-width="0.494" stroke-miterlimit="2.613" d="M41.4,24.4H42v-0.5h-0.5V24.4z"/>
<path fill="#FFFFFF" stroke="#4A538A" stroke-width="0.494" stroke-miterlimit="2.613" d="M41.4,23.8H42v-0.5h-0.5V23.8z M41.4,19
	v-0.5h-0.5V19H41.4z M41.4,23.3H42v-0.5h-0.5V23.3z M41.4,22.2H42v-0.5h-0.5V22.2z"/>
<path fill="#FFFFFF" stroke="#4A538A" stroke-width="0.494" stroke-miterlimit="2.613" d="M41.4,22.8H42v-0.5h-0.5V22.8z M39.8,19
	v-0.5h-0.5V19H39.8z M41.4,25.5H42v-0.5h-0.5V25.5z M38.7,19v-0.5h-0.5V19H38.7z"/>
<path fill="#FFFFFF" stroke="#4A538A" stroke-width="0.494" stroke-miterlimit="2.613" d="M39.3,19v-0.5h-0.5V19H39.3z M36.6,22.2
	H36v0.5h0.5V22.2z M37.7,23.8h0.5v-0.5h-0.5V23.8z M37.1,22.8v-0.5h-0.5v0.5H37.1z M37.7,23.3h0.5v-0.5h-0.5V23.3z M38.2,22.8v-0.5
	h-0.5v0.5H38.2z"/>
<path fill="#FFFFFF" stroke="#4A538A" stroke-width="0.494" stroke-miterlimit="2.613" d="M37.7,22.8v-0.5h-0.5v0.5H37.7z
	 M37.7,24.4h0.5v-0.5h-0.5V24.4z M35.5,24.9H35v0.5h0.5V24.9z M35.5,25.5V26H36v-0.5H35.5z"/>
<path fill="#FFFFFF" stroke="#4A538A" stroke-width="0.494" stroke-miterlimit="2.613" d="M35,25.5V26h0.5v-0.5H35z M36.6,25.5V26
	h0.5v-0.5H36.6z"/>
<path fill="#FFFFFF" stroke="#4A538A" stroke-width="0.494" stroke-miterlimit="2.613" d="M36,25.5V26h0.5v-0.5H36z M37.1,25.5V26
	h0.5v-0.5H37.1z M41.4,27.6H42v-0.5h-0.5V27.6z"/>
<path fill="#FFFFFF" stroke="#4A538A" stroke-width="0.494" stroke-miterlimit="2.613" d="M41.4,28.2H42v-0.5h-0.5V28.2z"/>
<path fill="#FFFFFF" stroke="#4A538A" stroke-width="0.494" stroke-miterlimit="2.613" d="M40.9,27.6v0.5h0.5v-0.5H40.9z"/>
<path fill="#FFFFFF" stroke="#4A538A" stroke-width="0.494" stroke-miterlimit="2.613" d="M40.4,27.6v0.5h0.5v-0.5H40.4z M41.4,26.5
	H42V26h-0.5V26.5z"/>
<path fill="#FFFFFF" stroke="#4A538A" stroke-width="0.494" stroke-miterlimit="2.613" d="M41.4,27.1H42v-0.5h-0.5V27.1z M41.4,26
	H42v-0.5h-0.5V26z M37.7,27.6v0.5h0.5v-0.5H37.7z"/>
<path fill="#FFFFFF" stroke="#4A538A" stroke-width="0.494" stroke-miterlimit="2.613" d="M38.2,27.6v0.5h0.5v-0.5H38.2z"/>
<path fill="#FFFFFF" stroke="#4A538A" stroke-width="0.494" stroke-miterlimit="2.613" d="M38.7,27.6v0.5h0.5v-0.5H38.7z M35.5,22.2
	H35v0.5h0.5V22.2z M47.1,16.3c-0.1-0.1-0.2-0.2-0.3-0.3v0.3H47.1z M32.3,28.2v0.5h0.5v-0.5H32.3z M35.5,24.4H35v0.5h0.5V24.4z
	 M36.6,22.8H36v0.5h0.5V22.8z"/>
<path fill="#FFFFFF" stroke="#4A538A" stroke-width="0.494" stroke-miterlimit="2.613" d="M35.5,23.8H35v0.5h0.5V23.8z M35.5,22.8
	H35v0.5h0.5V22.8z M32.8,27.6h-0.5v0.5h0.5V27.6z"/>
<path fill="#FFFFFF" stroke="#4A538A" stroke-width="0.494" stroke-miterlimit="2.613" d="M35.5,23.3H35v0.5h0.5V23.3z M38.2,28.2
	v0.5h0.5v-0.5H38.2z M39.3,28.2v0.5h0.5v-0.5H39.3z"/>
<path fill="#FFFFFF" stroke="#4A538A" stroke-width="0.494" stroke-miterlimit="2.613" d="M38.7,28.2v0.5h0.5v-0.5H38.7z M36,28.2
	v0.5h0.5v-0.5H36z M33.3,19v-0.5h-0.5V19H33.3z M33.9,19v-0.5h-0.5V19H33.9z M32.8,26h-0.5v0.5h0.5V26z M32.8,23.8h-0.5v0.5h0.5
	V23.8z"/>
<path fill="#FFFFFF" stroke="#4A538A" stroke-width="0.494" stroke-miterlimit="2.613" d="M32.8,25.5h-0.5V26h0.5V25.5z M32.8,24.4
	h-0.5v0.5h0.5V24.4z M32.8,26.5h-0.5v0.5h0.5V26.5z"/>
<path fill="#FFFFFF" stroke="#4A538A" stroke-width="0.494" stroke-miterlimit="2.613" d="M32.8,27.1h-0.5v0.5h0.5V27.1z M32.8,20.6
	h-0.5v0.5h0.5V20.6z M32.8,21.7h-0.5v0.5h0.5V21.7z"/>
<path fill="#FFFFFF" stroke="#4A538A" stroke-width="0.494" stroke-miterlimit="2.613" d="M32.8,21.1h-0.5v0.5h0.5V21.1z M32.8,23.3
	h-0.5v0.5h0.5V23.3z M33.3,27.1v0.5h0.5v-0.5H33.3z M31.2,13.6h0.5V13h-0.4c0,0-0.1,0-0.1,0.1V13.6L31.2,13.6z M39.8,13.6V13h-0.5
	v0.5H39.8z M40.4,13v-0.5h-0.5V13H40.4z M39.8,12.5h-0.5V13h0.5V12.5z"/>
<path fill="#FFFFFF" stroke="#4A538A" stroke-width="0.494" stroke-miterlimit="2.613" d="M39.3,13.6V13h-0.5v0.5H39.3z M39.8,13.6
	h0.5V13h-0.5V13.6z M42.5,13.6V13H42v0.5H42.5z M41.4,13.6V13h-0.5v0.5H41.4z"/>
<path fill="#FFFFFF" stroke="#4A538A" stroke-width="0.494" stroke-miterlimit="2.613" d="M40.9,13.6V13h-0.5v0.5H40.9z M43.1,13.6
	V13h-0.5v0.5H43.1z M47.4,29.2v0.5h0.4c0-0.1,0.1-0.1,0.1-0.2v-0.4H47.4L47.4,29.2z M47.9,29.6c0.1-0.1,0.1-0.3,0.2-0.4h-0.2V29.6z"
	/>
<path fill="#FFFFFF" stroke="#4A538A" stroke-width="0.494" stroke-miterlimit="2.613" d="M48.1,29.2c0.1-0.2,0.2-0.4,0.3-0.5h-0.5
	v0.5H48.1z M47.9,26.5h0.5V26h-0.5V26.5z M47.9,25.5h0.5v-0.5h-0.5V25.5z M47.9,24.4h0.5v-0.5h-0.5V24.4z"/>
<path fill="#FFFFFF" stroke="#4A538A" stroke-width="0.494" stroke-miterlimit="2.613" d="M47.4,26v0.5h0.5V26H47.4z M47.9,24.9h0.5
	v-0.5h-0.5V24.9z M47.9,26h0.5v-0.5h-0.5V26z M47.4,29.2h0.5v-0.5h-0.5V29.2z M47.4,28.7h0.5v-0.5h-0.5V28.7z M47.4,27.6h0.5v-0.5
	h-0.5V27.6z"/>
<path fill="#FFFFFF" stroke="#4A538A" stroke-width="0.494" stroke-miterlimit="2.613" d="M47.4,27.1h0.5v-0.5h-0.5V27.1z
	 M47.4,28.2h0.5v-0.5h-0.5V28.2z M47.9,23.8h0.5v-0.5h-0.5V23.8z M30.1,14.1h0.5v-0.5h-0.2c-0.1,0.1-0.2,0.2-0.4,0.3L30.1,14.1
	L30.1,14.1z M30.7,14.1h0.5v-0.5h-0.5V14.1z"/>
<path fill="#FFFFFF" stroke="#4A538A" stroke-width="0.494" stroke-miterlimit="2.613" d="M31.7,14.1v-0.5h-0.5v0.5H31.7z"/>
<path fill="#4A538A" stroke="#4A538A" stroke-width="0.494" stroke-miterlimit="2.613" d="M30.7,13.5c-0.1,0-0.1,0.1-0.2,0.1h0.2
	V13.5z"/>
<path fill="#FFFFFF" stroke="#4A538A" stroke-width="0.494" stroke-miterlimit="2.613" d="M31.2,13.6v-0.5c-0.2,0.1-0.4,0.2-0.5,0.3
	v0.1H31.2z M43.1,12.8c-0.2-0.1-0.4-0.2-0.5-0.3V13h0.5V12.8z M47.4,22.8h0.5v-0.5h-0.5V22.8z M47.4,23.3h0.5v-0.5h-0.5V23.3z
	 M47.4,23.8h0.5v-0.5h-0.5V23.8z"/>
<path fill="#FFFFFF" stroke="#4A538A" stroke-width="0.494" stroke-miterlimit="2.613" d="M47.4,22.2h0.5v-0.5h-0.5V22.2z
	 M46.8,21.7h0.5v-0.5h-0.5V21.7z"/>
<path fill="#FFFFFF" stroke="#4A538A" stroke-width="0.494" stroke-miterlimit="2.613" d="M47.9,21.7v-0.5h-0.5v0.5H47.9z
	 M47.4,24.9h0.5v-0.5h-0.5V24.9z M47.4,26h0.5v-0.5h-0.5V26z M46.8,25.5V26h0.5v-0.5H46.8z M46.8,21.1h0.5v-0.5h-0.5V21.1z"/>
<path fill="#FFFFFF" stroke="#4A538A" stroke-width="0.494" stroke-miterlimit="2.613" d="M47.4,24.4h0.5v-0.5h-0.5V24.4z
	 M47.4,25.5h0.5v-0.5h-0.5V25.5z M46.8,19.5h0.5V19h-0.5V19.5z M46.8,16.3v0.5h0.5v-0.2c-0.1-0.1-0.2-0.3-0.3-0.4L46.8,16.3z"/>
<path fill="#FFFFFF" stroke="#4A538A" stroke-width="0.494" stroke-miterlimit="2.613" d="M47.4,17.4h0.4c-0.1-0.2-0.2-0.4-0.3-0.5
	h-0.1V17.4L47.4,17.4z M46.8,20.6h0.5v-0.5h-0.5V20.6z M43.4,13c-0.1-0.1-0.3-0.1-0.4-0.2V13H43.4z"/>
<path fill="#FFFFFF" stroke="#4A538A" stroke-width="0.494" stroke-miterlimit="2.613" d="M46.8,16.8v0.5h0.5v-0.5H46.8z M43.1,13.6
	h0.5v-0.5c-0.1,0-0.1-0.1-0.2-0.1h-0.4V13.6L43.1,13.6z M46.8,17.9h0.5v-0.5h-0.5V17.9z M46.8,26.5h0.5V26h-0.5V26.5z M46.8,20.1
	h0.5v-0.5h-0.5V20.1z M46.8,18.4h0.5v-0.5h-0.5V18.4z"/>
<path fill="#FFFFFF" stroke="#4A538A" stroke-width="0.494" stroke-miterlimit="2.613" d="M46.8,19h0.5v-0.5h-0.5V19z M47.5,16.8
	c0-0.1-0.1-0.1-0.1-0.2v0.2H47.5z M46.8,27.1h0.5v-0.5h-0.5V27.1z M46.8,28.7h0.5v-0.5h-0.5V28.7z M46.8,29.8h0.5v-0.5h-0.5V29.8z"
	/>
<path fill="#FFFFFF" stroke="#4A538A" stroke-width="0.494" stroke-miterlimit="2.613" d="M46.8,28.2h0.5v-0.5h-0.5V28.2z"/>
<path fill="#FFFFFF" stroke="#4A538A" stroke-width="0.494" stroke-miterlimit="2.613" d="M46.8,27.6h0.5v-0.5h-0.5V27.6z
	 M46.8,30.3h0.5v-0.5h-0.5V30.3z M46.8,29.2h0.5v-0.5h-0.5V29.2z"/>
<path fill="#FFFFFF" stroke="#4A538A" stroke-width="0.494" stroke-miterlimit="2.613" d="M46.8,30.3v0.5h0.3
	c0.1-0.1,0.2-0.3,0.3-0.4v-0.2L46.8,30.3z M47.5,30.3c0.1-0.2,0.2-0.4,0.3-0.5h-0.4v0.5H47.5z M47.4,20.1h0.5v-0.5h-0.5V20.1z
	 M49,20.6v-0.5h-0.5v0.5H49z"/>
<path fill="#FFFFFF" stroke="#4A538A" stroke-width="0.494" stroke-miterlimit="2.613" d="M48.5,21.1H49v-0.5h-0.5V21.1z M47.9,20.6
	h0.5v-0.5h-0.5V20.6z M47.9,19v0.5h0.5V19H47.9z M48.5,19.5h0.4c-0.1-0.2-0.1-0.4-0.2-0.5h-0.2L48.5,19.5L48.5,19.5z M48.5,21.7H49
	v-0.5h-0.5V21.7z"/>
<path fill="#FFFFFF" stroke="#4A538A" stroke-width="0.494" stroke-miterlimit="2.613" d="M47.9,20.1h0.5v-0.5h-0.5V20.1z
	 M48.5,24.4H49v-0.5h-0.5V24.4z"/>
<path fill="#FFFFFF" stroke="#4A538A" stroke-width="0.494" stroke-miterlimit="2.613" d="M48.5,23.8H49v-0.5h-0.5V23.8z M48.5,22.2
	H49v-0.5h-0.5V22.2z M48.5,23.3H49v-0.5h-0.5V23.3z"/>
<path fill="#FFFFFF" stroke="#4A538A" stroke-width="0.494" stroke-miterlimit="2.613" d="M48.5,22.8H49v-0.5h-0.5V22.8z M48.6,19
	c-0.1-0.1-0.1-0.3-0.2-0.4V19H48.6z M40.9,12.5h0.5v-0.4C41.3,12.1,41.1,12,41,12h-0.1L40.9,12.5z M40.4,12v-0.2
	c-0.2,0-0.4-0.1-0.5-0.1V12H40.4z"/>
<path fill="#FFFFFF" stroke="#4A538A" stroke-width="0.494" stroke-miterlimit="2.613" d="M47.9,18.4V19h0.5v-0.4c0,0,0-0.1-0.1-0.1
	H47.9z"/>
<path fill="#4A538A" d="M41,12C41,12,40.9,12,41,12L41,12L41,12z"/>
<path fill="#FFFFFF" stroke="#4A538A" stroke-width="0.494" stroke-miterlimit="2.613" d="M49,20.6h0.2c0-0.2-0.1-0.4-0.1-0.5h0
	V20.6L49,20.6z"/>
<path fill="#4A538A" d="M49,20.1L49,20.1L49,20.1L49,20.1z"/>
<path fill="#FFFFFF" stroke="#4A538A" stroke-width="0.494" stroke-miterlimit="2.613" d="M48.5,19.5v0.5H49V20
	c-0.1-0.2-0.1-0.3-0.2-0.5H48.5L48.5,19.5z M48.5,24.9H49v-0.5h-0.5V24.9z"/>
<path fill="#4A538A" d="M37.7,11.4L37.7,11.4c-0.1,0-0.2,0-0.3,0c-0.1,0-0.2,0-0.3,0v0L37.7,11.4z"/>
<path fill="#FFFFFF" stroke="#4A538A" stroke-width="0.494" stroke-miterlimit="2.613" d="M49,21.1h0.3c0-0.2-0.1-0.4-0.1-0.5H49
	V21.1L49,21.1z"/>
<path fill="#4A538A" d="M37.7,11.4C37.7,11.4,37.7,11.4,37.7,11.4L37.7,11.4L37.7,11.4z"/>
<path fill="#FFFFFF" stroke="#4A538A" stroke-width="0.494" stroke-miterlimit="2.613" d="M49,21.7h0.4c0-0.2-0.1-0.4-0.1-0.5H49
	L49,21.7z M49,23.3h0.5c0-0.2,0-0.4,0-0.5H49V23.3z"/>
<path fill="#FFFFFF" stroke="#4A538A" stroke-width="0.494" stroke-miterlimit="2.613" d="M49,23.8h0.5c0-0.1,0-0.2,0-0.3
	c0-0.1,0-0.2,0-0.3H49V23.8z M49,22.8h0.5c0-0.2,0-0.4,0-0.5H49V22.8L49,22.8z"/>
<path fill="#FFFFFF" stroke="#4A538A" stroke-width="0.494" stroke-miterlimit="2.613" d="M49,22.2h0.5c0-0.2,0-0.4-0.1-0.5H49
	L49,22.2z"/>
<path fill="#4A538A" d="M37.1,35.7L37.1,35.7c0.1,0,0.2,0,0.3,0c0.1,0,0.2,0,0.3,0v0H37.1z"/>
<path fill="#4A538A" d="M37,35.7c0,0,0.1,0,0.1,0v0H37z M37.7,35.7C37.7,35.7,37.7,35.7,37.7,35.7L37.7,35.7L37.7,35.7z M37.1,11.4
	C37.1,11.4,37.1,11.4,37.1,11.4L37.1,11.4L37.1,11.4z"/>
<path fill="#FFFFFF" stroke="#4A538A" stroke-width="0.494" stroke-miterlimit="2.613" d="M49,24.4h0.5c0-0.2,0-0.4,0-0.5H49V24.4z"
	/>
<path fill="#FFFFFF" stroke="#4A538A" stroke-width="0.494" stroke-miterlimit="2.613" d="M49,24.9h0.5c0-0.2,0-0.4,0-0.5H49V24.9
	L49,24.9z"/>
<path fill="#4A538A" d="M49,27.1L49,27.1L49,27.1L49,27.1z"/>
<path fill="#FFFFFF" stroke="#4A538A" stroke-width="0.494" stroke-miterlimit="2.613" d="M49,26.5h0.2c0-0.2,0.1-0.4,0.1-0.5H49
	V26.5z M49,26h0.3c0-0.2,0.1-0.4,0.1-0.5H49V26L49,26z"/>
<path fill="#FFFFFF" stroke="#4A538A" stroke-width="0.494" stroke-miterlimit="2.613" d="M49,25.5h0.4c0-0.2,0.1-0.4,0.1-0.5H49
	V25.5z"/>
<path fill="#4A538A" d="M40.9,35.2C40.9,35.2,41,35.2,40.9,35.2L40.9,35.2L40.9,35.2z"/>
<path fill="#FFFFFF" stroke="#4A538A" stroke-width="0.494" stroke-miterlimit="2.613" d="M47.4,20.6h0.5v-0.5h-0.5V20.6z M47.4,19
	h0.5v-0.5h-0.5V19z"/>
<path fill="#FFFFFF" stroke="#4A538A" stroke-width="0.494" stroke-miterlimit="2.613" d="M47.4,19.5h0.5V19h-0.5V19.5z M47.4,17.9
	v0.5h0.5v-0.5H47.4z"/>
<path fill="#FFFFFF" stroke="#4A538A" stroke-width="0.494" stroke-miterlimit="2.613" d="M47.9,18.4h0.5c-0.1-0.2-0.2-0.4-0.3-0.5
	h-0.2V18.4L47.9,18.4z M48.5,21.1v-0.5h-0.5v0.5H48.5z M47.9,22.8h0.5v-0.5h-0.5V22.8z"/>
<path fill="#FFFFFF" stroke="#4A538A" stroke-width="0.494" stroke-miterlimit="2.613" d="M47.9,22.2h0.5v-0.5h-0.5V22.2z
	 M47.4,21.1h0.5v-0.5h-0.5V21.1z M48.1,17.9c-0.1-0.1-0.1-0.3-0.2-0.4v0.4H48.1z M47.9,21.7h0.5v-0.5h-0.5V21.7z M40.4,12.5V12h-0.5
	v0.5H40.4z"/>
<path fill="#FFFFFF" stroke="#4A538A" stroke-width="0.494" stroke-miterlimit="2.613" d="M40.9,12.5V12h-0.5v0.5H40.9z M39.8,12.5
	V12h-0.5v0.5H39.8z M39.3,13v-0.5h-0.5V13H39.3z M40.4,13h0.5v-0.5h-0.5V13z M42,13h0.5v-0.5c0,0-0.1,0-0.1-0.1H42V13z M42.4,12.5
	c-0.1-0.1-0.3-0.1-0.4-0.2v0.2H42.4z M47.4,17.4v0.5h0.5v-0.4c0-0.1-0.1-0.1-0.1-0.2H47.4z"/>
<path fill="#FFFFFF" stroke="#4A538A" stroke-width="0.494" stroke-miterlimit="2.613" d="M42,13v-0.5h-0.5V13H42z M42,12.3
	c-0.2-0.1-0.4-0.1-0.5-0.2v0.4H42V12.3z"/>
<path fill="#FFFFFF" stroke="#4A538A" stroke-width="0.494" stroke-miterlimit="2.613" d="M41.4,13v-0.5h-0.5V13H41.4z M47.9,28.2
	h0.5v-0.5h-0.5V28.2z M47.9,26.5v0.5h0.5v-0.5H47.9z"/>
<path fill="#FFFFFF" stroke="#4A538A" stroke-width="0.494" stroke-miterlimit="2.613" d="M47.9,27.6h0.5v-0.5h-0.5V27.6z
	 M47.9,23.3h0.5v-0.5h-0.5V23.3z M47.9,28.2v0.5h0.5c0,0,0-0.1,0.1-0.1v-0.4L47.9,28.2z M48.5,26H49v-0.5h-0.5V26z"/>
<path fill="#FFFFFF" stroke="#4A538A" stroke-width="0.494" stroke-miterlimit="2.613" d="M48.5,25.5H49v-0.5h-0.5V25.5z M46.3,23.8
	h0.5v-0.5h-0.5V23.8z M45.2,19h0.5v-0.5h-0.5V19z M45.2,21.7h0.5v-0.5h-0.5V21.7z M45.2,20.6h0.5v-0.5h-0.5V20.6z"/>
<path fill="#FFFFFF" stroke="#4A538A" stroke-width="0.494" stroke-miterlimit="2.613" d="M45.2,20.1h0.5v-0.5h-0.5V20.1z
	 M45.2,19.5h0.5V19h-0.5V19.5z M45.2,22.2h0.5v-0.5h-0.5V22.2z M45.2,21.1h0.5v-0.5h-0.5V21.1z M38.2,31.4v0.5h0.5v-0.5H38.2z
	 M45.8,24.4h0.5v-0.5h-0.5V24.4z"/>
<path fill="#FFFFFF" stroke="#4A538A" stroke-width="0.494" stroke-miterlimit="2.613" d="M45.2,22.8h0.5v-0.5h-0.5V22.8z
	 M45.2,23.8v0.5h0.5v-0.5H45.2z M46.3,23.3v-0.5h-0.5v0.5H46.3z M45.2,23.3h0.5v-0.5h-0.5V23.3z M44.1,15.2v-0.5h-0.5v0.5H44.1z"/>
<path fill="#FFFFFF" stroke="#4A538A" stroke-width="0.494" stroke-miterlimit="2.613" d="M45.2,24.9h0.5v-0.5h-0.5V24.9z
	 M45.8,15.2v-0.4c0,0-0.1-0.1-0.1-0.1h-0.4v0.5H45.8z M45.2,15.2v-0.5h-0.5v0.5H45.2z"/>
<path fill="#FFFFFF" stroke="#4A538A" stroke-width="0.494" stroke-miterlimit="2.613" d="M44.7,15.2v-0.5h-0.5v0.5H44.7z
	 M43.1,15.2v-0.5h-0.5v0.5H43.1z M43.6,15.2v-0.5h-0.5v0.5H43.6z M45.2,17.4h0.5v-0.5h-0.5V17.4z M45.2,17.9h0.5v-0.5h-0.5V17.9z
	 M45.2,18.4h0.5v-0.5h-0.5V18.4z M45.2,16.3h0.5v-0.5h-0.5V16.3z M45.2,15.7h0.5v-0.5h-0.5V15.7z"/>
<path fill="#FFFFFF" stroke="#4A538A" stroke-width="0.494" stroke-miterlimit="2.613" d="M45.2,16.8h0.5v-0.5h-0.5V16.8z
	 M44.1,31.4v0.5h0.5v-0.5H44.1z M42.5,15.2v-0.5H42v0.5H42.5z"/>
<path fill="#FFFFFF" stroke="#4A538A" stroke-width="0.494" stroke-miterlimit="2.613" d="M44.7,31.4v0.5h0.5v-0.5H44.7z M45.2,25.5
	h0.5v-0.5h-0.5V25.5z M45.2,27.6h0.5v-0.5h-0.5V27.6z"/>
<path fill="#FFFFFF" stroke="#4A538A" stroke-width="0.494" stroke-miterlimit="2.613" d="M45.2,28.2h0.5v-0.5h-0.5V28.2z"/>
<path fill="#FFFFFF" stroke="#4A538A" stroke-width="0.494" stroke-miterlimit="2.613" d="M45.2,28.7h0.5v-0.5h-0.5V28.7z
	 M45.2,30.9h0.5v-0.5h-0.5V30.9z"/>
<path fill="#FFFFFF" stroke="#4A538A" stroke-width="0.494" stroke-miterlimit="2.613" d="M45.2,30.3h0.5v-0.5h-0.5V30.3z
	 M45.2,29.2h0.5v-0.5h-0.5V29.2z"/>
<path fill="#FFFFFF" stroke="#4A538A" stroke-width="0.494" stroke-miterlimit="2.613" d="M45.2,29.8h0.5v-0.5h-0.5V29.8z
	 M45.8,23.8h0.5v-0.5h-0.5V23.8z M29,26.5h-0.5v0.5H29V26.5z M29,28.2h-0.5v0.5H29V28.2z"/>
<path fill="#FFFFFF" stroke="#4A538A" stroke-width="0.494" stroke-miterlimit="2.613" d="M29,27.1h-0.5v0.5H29V27.1z M29,27.6h-0.5
	v0.5H29V27.6z M29,28.7h-0.5v0.5H29V28.7z M29,26h-0.5v0.5H29V26z M42,15.2v-0.5h-0.5v0.5H42z M38.7,15.2v-0.5h-0.5v0.5H38.7z
	 M38.2,15.2v-0.5h-0.5v0.5H38.2z M39.8,15.2v-0.5h-0.5v0.5H39.8z"/>
<path fill="#FFFFFF" stroke="#4A538A" stroke-width="0.494" stroke-miterlimit="2.613" d="M39.3,15.2v-0.5h-0.5v0.5H39.3z
	 M40.4,15.2v-0.5h-0.5v0.5H40.4z M30.6,15.2v-0.5h-0.5v0.5H30.6z M31.2,15.2v-0.5h-0.5v0.5H31.2z M29,15.2h0.5v-0.5h-0.5
	c0,0-0.1,0.1-0.1,0.1L29,15.2z"/>
<path fill="#FFFFFF" stroke="#4A538A" stroke-width="0.494" stroke-miterlimit="2.613" d="M31.7,15.2v-0.5h-0.5v0.5H31.7z
	 M30.1,15.2v-0.5h-0.5v0.5H30.1z M42,15.7v-0.5h-0.5v0.5H42z M42.5,15.7v-0.5H42v0.5H42.5z"/>
<path fill="#FFFFFF" stroke="#4A538A" stroke-width="0.494" stroke-miterlimit="2.613" d="M41.4,15.7v-0.5h-0.5v0.5H41.4z
	 M43.1,15.7v-0.5h-0.5v0.5H43.1z M40.4,15.7v-0.5h-0.5v0.5H40.4z M44.7,16.3h0.5v-0.5h-0.5V16.3z M39.8,15.7v-0.5h-0.5v0.5H39.8z"/>
<path fill="#FFFFFF" stroke="#4A538A" stroke-width="0.494" stroke-miterlimit="2.613" d="M44.7,16.8h0.5v-0.5h-0.5V16.8z
	 M45.2,15.7v-0.5h-0.5v0.5H45.2z"/>
<path fill="#FFFFFF" stroke="#4A538A" stroke-width="0.494" stroke-miterlimit="2.613" d="M44.7,15.7v-0.5h-0.5v0.5H44.7z
	 M43.6,15.7v-0.5h-0.5v0.5H43.6z"/>
<path fill="#FFFFFF" stroke="#4A538A" stroke-width="0.494" stroke-miterlimit="2.613" d="M44.1,15.7v-0.5h-0.5v0.5H44.1z
	 M38.2,15.7v-0.5h-0.5v0.5H38.2z M33.3,15.7v-0.5h-0.5v0.5H33.3z M38.7,15.7v-0.5h-0.5v0.5H38.7z M44.7,17.4h0.5v-0.5h-0.5V17.4z"/>
<path fill="#FFFFFF" stroke="#4A538A" stroke-width="0.494" stroke-miterlimit="2.613" d="M39.3,15.7v-0.5h-0.5v0.5H39.3z
	 M37.1,15.7v-0.5h-0.5v0.5H37.1z M37.7,15.7v-0.5h-0.5v0.5H37.7z M44.7,28.2h0.5v-0.5h-0.5V28.2z M44.7,24.9h0.5v-0.5h-0.5V24.9z"/>
<path fill="#FFFFFF" stroke="#4A538A" stroke-width="0.494" stroke-miterlimit="2.613" d="M44.7,27.6h0.5v-0.5h-0.5V27.6z
	 M44.7,25.5h0.5v-0.5h-0.5V25.5z"/>
<path fill="#FFFFFF" stroke="#4A538A" stroke-width="0.494" stroke-miterlimit="2.613" d="M44.7,26h0.5v-0.5h-0.5V26z M44.7,30.9
	h0.5v-0.5h-0.5V30.9z"/>
<path fill="#FFFFFF" stroke="#4A538A" stroke-width="0.494" stroke-miterlimit="2.613" d="M44.7,30.3h0.5v-0.5h-0.5V30.3z
	 M44.7,29.2h0.5v-0.5h-0.5V29.2z M44.7,28.7h0.5v-0.5h-0.5V28.7z M44.7,18.4h0.5v-0.5h-0.5V18.4z M44.7,20.1h0.5v-0.5h-0.5V20.1z
	 M44.7,19.5h0.5V19h-0.5V19.5z"/>
<path fill="#FFFFFF" stroke="#4A538A" stroke-width="0.494" stroke-miterlimit="2.613" d="M44.7,20.6h0.5v-0.5h-0.5V20.6z"/>
<path fill="#FFFFFF" stroke="#4A538A" stroke-width="0.494" stroke-miterlimit="2.613" d="M44.7,21.1h0.5v-0.5h-0.5V21.1z
	 M44.7,17.9h0.5v-0.5h-0.5V17.9z M44.7,19h0.5v-0.5h-0.5V19z M44.7,23.3h0.5v-0.5h-0.5V23.3z M44.7,24.4h0.5v-0.5h-0.5V24.4z"/>
<path fill="#FFFFFF" stroke="#4A538A" stroke-width="0.494" stroke-miterlimit="2.613" d="M44.7,23.8h0.5v-0.5h-0.5V23.8z
	 M44.7,22.2h0.5v-0.5h-0.5V22.2z"/>
<path fill="#FFFFFF" stroke="#4A538A" stroke-width="0.494" stroke-miterlimit="2.613" d="M44.7,22.8h0.5v-0.5h-0.5V22.8z
	 M44.7,21.7h0.5v-0.5h-0.5V21.7z M29.6,26.5H29v0.5h0.5V26.5z M29.6,27.6H29v0.5h0.5V27.6z M29.6,29.2H29v0.5h0.5V29.2z"/>
<path fill="#FFFFFF" stroke="#4A538A" stroke-width="0.494" stroke-miterlimit="2.613" d="M29.6,28.2H29v0.5h0.5V28.2z M29.6,28.7
	H29v0.5h0.5V28.7z M29.6,27.1H29v0.5h0.5V27.1z M29.6,25.5H29V26h0.5V25.5z"/>
<path fill="#FFFFFF" stroke="#4A538A" stroke-width="0.494" stroke-miterlimit="2.613" d="M29.6,26H29v0.5h0.5V26z M46.3,30.9h0.5
	v-0.5h-0.5V30.9z"/>
<path fill="#FFFFFF" stroke="#4A538A" stroke-width="0.494" stroke-miterlimit="2.613" d="M46.3,30.3h0.5v-0.5h-0.5V30.3z
	 M42.5,14.1v-0.5H42v0.5H42.5z"/>
<path fill="#FFFFFF" stroke="#4A538A" stroke-width="0.494" stroke-miterlimit="2.613" d="M43.1,14.1v-0.5h-0.5v0.5H43.1z
	 M43.6,14.1v-0.5h-0.5v0.5H43.6z M46.3,16.8h0.5v-0.5h-0.5V16.8z M40.4,14.1v-0.5h-0.5v0.5H40.4z"/>
<path fill="#FFFFFF" stroke="#4A538A" stroke-width="0.494" stroke-miterlimit="2.613" d="M40.9,14.1v-0.5h-0.5v0.5H40.9z
	 M46.3,15.7v0.5h0.5v-0.3c-0.1-0.1-0.1-0.1-0.2-0.2H46.3z M44.1,14.1h0.5v-0.3c-0.1-0.1-0.3-0.2-0.4-0.3h-0.2V14.1L44.1,14.1z
	 M44.1,13.5c-0.2-0.1-0.4-0.2-0.5-0.3v0.5h0.5V13.5z M44.1,14.1v-0.5h-0.5v0.5H44.1z"/>
<path fill="#4A538A" d="M44.3,13.6c-0.1,0-0.1-0.1-0.2-0.1v0.1H44.3z"/>
<path fill="#FFFFFF" stroke="#4A538A" stroke-width="0.494" stroke-miterlimit="2.613" d="M38.7,14.1v-0.5h-0.5v0.5H38.7z"/>
<path fill="#FFFFFF" stroke="#4A538A" stroke-width="0.494" stroke-miterlimit="2.613" d="M39.3,14.1v-0.5h-0.5v0.5H39.3z"/>
<path fill="#FFFFFF" stroke="#4A538A" stroke-width="0.494" stroke-miterlimit="2.613" d="M39.8,14.1v-0.5h-0.5v0.5H39.8z
	 M46.3,28.7h0.5v-0.5h-0.5V28.7z M46.8,25.5h0.5v-0.5h-0.5V25.5z"/>
<path fill="#FFFFFF" stroke="#4A538A" stroke-width="0.494" stroke-miterlimit="2.613" d="M46.3,24.9v0.5h0.5v-0.5H46.3z M46.8,23.8
	h0.5v-0.5h-0.5V23.8z"/>
<path fill="#FFFFFF" stroke="#4A538A" stroke-width="0.494" stroke-miterlimit="2.613" d="M46.8,24.4h0.5v-0.5h-0.5V24.4z"/>
<path fill="#FFFFFF" stroke="#4A538A" stroke-width="0.494" stroke-miterlimit="2.613" d="M46.8,24.9h0.5v-0.5h-0.5V24.9z M46.3,26
	h0.5v-0.5h-0.5V26z M46.3,29.8h0.5v-0.5h-0.5V29.8z"/>
<path fill="#FFFFFF" stroke="#4A538A" stroke-width="0.494" stroke-miterlimit="2.613" d="M46.3,29.2h0.5v-0.5h-0.5V29.2z
	 M46.3,27.6h0.5v-0.5h-0.5V27.6z"/>
<path fill="#FFFFFF" stroke="#4A538A" stroke-width="0.494" stroke-miterlimit="2.613" d="M46.3,28.2h0.5v-0.5h-0.5V28.2z
	 M46.3,21.1h0.5v-0.5h-0.5V21.1z M46.3,19.5h0.5V19h-0.5V19.5z M46.3,20.1h0.5v-0.5h-0.5V20.1z"/>
<path fill="#FFFFFF" stroke="#4A538A" stroke-width="0.494" stroke-miterlimit="2.613" d="M46.3,19h0.5v-0.5h-0.5V19z"/>
<path fill="#FFFFFF" stroke="#4A538A" stroke-width="0.494" stroke-miterlimit="2.613" d="M46.3,18.4h0.5v-0.5h-0.5V18.4z
	 M46.8,23.3h0.5v-0.5h-0.5V23.3z M46.3,20.6h0.5v-0.5h-0.5V20.6z M46.3,17.9h0.5v-0.5h-0.5V17.9z M46.8,22.8h0.5v-0.5h-0.5V22.8z"/>
<path fill="#FFFFFF" stroke="#4A538A" stroke-width="0.494" stroke-miterlimit="2.613" d="M47.4,22.2v-0.5h-0.5v0.5H47.4z"/>
<path fill="#FFFFFF" stroke="#4A538A" stroke-width="0.494" stroke-miterlimit="2.613" d="M46.3,22.2h0.5v-0.5h-0.5V22.2z
	 M46.3,17.4h0.5v-0.5h-0.5V17.4z M46.3,21.7h0.5v-0.5h-0.5V21.7z M45.8,30.3h0.5v-0.5h-0.5V30.3z"/>
<path fill="#FFFFFF" stroke="#4A538A" stroke-width="0.494" stroke-miterlimit="2.613" d="M45.8,30.9h0.5v-0.5h-0.5V30.9z
	 M45.8,29.8h0.5v-0.5h-0.5V29.8z M46.3,24.4h0.5v-0.5h-0.5V24.4z"/>
<path fill="#FFFFFF" stroke="#4A538A" stroke-width="0.494" stroke-miterlimit="2.613" d="M45.8,29.2h0.5v-0.5h-0.5V29.2z
	 M45.8,25.5h0.5v-0.5h-0.5V25.5z M45.8,28.2h0.5v-0.5h-0.5V28.2z"/>
<path fill="#FFFFFF" stroke="#4A538A" stroke-width="0.494" stroke-miterlimit="2.613" d="M45.8,28.7h0.5v-0.5h-0.5V28.7z
	 M45.8,27.6h0.5v-0.5h-0.5V27.6z M46.3,23.3h0.5v-0.5h-0.5V23.3z M38.7,14.7v-0.5h-0.5v0.5H38.7z"/>
<path fill="#FFFFFF" stroke="#4A538A" stroke-width="0.494" stroke-miterlimit="2.613" d="M39.3,14.7v-0.5h-0.5v0.5H39.3z
	 M32.3,14.7v-0.5h-0.5v0.5H32.3z M31.2,14.7v-0.5h-0.5v0.5H31.2z"/>
<path fill="#FFFFFF" stroke="#4A538A" stroke-width="0.494" stroke-miterlimit="2.613" d="M31.7,14.7v-0.5h-0.5v0.5H31.7z
	 M30.7,14.7v-0.5h-0.5v0.5H30.7z"/>
<path fill="#FFFFFF" stroke="#4A538A" stroke-width="0.494" stroke-miterlimit="2.613" d="M29.6,14.7h0.5v-0.5h-0.4
	c-0.1,0-0.1,0.1-0.2,0.1L29.6,14.7z M45.8,17.4h0.5v-0.5h-0.5V17.4z M45.8,19h0.5v-0.5h-0.5V19z"/>
<path fill="#FFFFFF" stroke="#4A538A" stroke-width="0.494" stroke-miterlimit="2.613" d="M45.8,19.5h0.5V19h-0.5V19.5z M45.8,16.8
	h0.5v-0.5h-0.5V16.8z M45.8,18.4h0.5v-0.5h-0.5V18.4z M45.8,17.9h0.5v-0.5h-0.5V17.9z M46.8,22.8v-0.5h-0.5v0.5H46.8z M45.8,20.1
	h0.5v-0.5h-0.5V20.1z"/>
<path fill="#FFFFFF" stroke="#4A538A" stroke-width="0.494" stroke-miterlimit="2.613" d="M45.8,22.2h0.5v-0.5h-0.5V22.2z"/>
<path fill="#FFFFFF" stroke="#4A538A" stroke-width="0.494" stroke-miterlimit="2.613" d="M45.8,22.8h0.5v-0.5h-0.5V22.8z
	 M45.8,21.1h0.5v-0.5h-0.5V21.1z M45.8,21.7h0.5v-0.5h-0.5V21.7z"/>
<path fill="#FFFFFF" stroke="#4A538A" stroke-width="0.494" stroke-miterlimit="2.613" d="M45.8,20.6h0.5v-0.5h-0.5V20.6z
	 M42.5,14.7v-0.5H42v0.5H42.5z"/>
<path fill="#4A538A" stroke="#4A538A" stroke-width="0.494" stroke-miterlimit="2.613" d="M36.6,26.5H36v0.5h0.5V26.5z M47.4,30.5
	c0-0.1,0.1-0.1,0.1-0.2h-0.1V30.5z M42.5,28.7v0.5h0.5v-0.5H42.5z"/>
<path fill="#4A538A" d="M46.3,30.9h-2.7v-0.5v-0.5h1.6v-0.5h-2.2v2.2h-0.5v-0.5H42v-0.5v-0.5h-0.5v-0.5h-0.5v-0.5v-0.5h-0.5v-0.5
	h-0.5v-0.5h-0.5v-0.5h-0.5V26h-0.5v1.1h0.5v0.5h0.5v0.5h0.5v0.5h0.5v0.5h-0.5v1.1h-0.5v0.5h-1.6v-0.5v-0.5h1.1v0.5h0.5v-0.5v-0.5
	h-0.5v-0.5h-0.5v-0.5h-0.5v-0.5h-0.5v-0.5h-0.5v0.5H36v-0.5h-1.6v0.5h-0.5v0.5h-1.1v1.6h-0.5v0.5h-1.6v0.5h-1.1v-0.5v-0.5H29v-0.5
	h-0.5v-0.5v-0.5v-0.5v-0.5v-0.5V26H29v-0.5h2.2V26h1.1v-0.5h0.5v-0.5h-0.5v-0.5v-0.5h-0.5v-0.5v-0.5h0.5v0.5h0.5v-0.5H35v-0.5h-3.2
	v-0.5h0.5v-0.5v-0.5h-0.5v0.5h-1.6v-0.5v-0.5h0.5v-0.5V19h0.5v-0.5h1.1v2.2h0.5v-0.5v-0.5V19v-0.5v-0.5v-0.5h0.5v-0.5h1.1v0.5h-0.5
	v0.5h0.5v0.5h-0.5V19h0.5v1.6H35v1.6h0.5v-0.5v-0.5H36v-0.5h0.5v-0.5v-0.5V19h0.5v0.5h0.5V19h0.5v-0.5v-0.5h-1.1v0.5h-0.5v-0.5H36
	v-0.5v-0.5v-0.5v-0.5h0.5v-0.5h1.1v-0.5h0.5v-0.5v-0.5h0.5V13v-0.5h0.5V12h0.5v-0.3c-0.4-0.1-0.7-0.1-1.1-0.2c-0.3,0-0.7-0.1-1-0.1
	h-0.7c-0.3,0-0.7,0-1,0.1c-0.4,0-0.7,0.1-1.1,0.2c-0.4,0.1-0.7,0.2-1.1,0.3c0,0-0.1,0-0.1,0c-0.1,0-0.3,0.1-0.4,0.1
	c-0.3,0.1-0.7,0.3-1,0.4c0,0-0.1,0-0.1,0c-0.3,0.2-0.6,0.3-1,0.5h0.4v1.1h0.5v0.5h-0.5v0.5h-3.2c0,0-0.1,0.1-0.1,0.1
	c-0.2,0.2-0.4,0.4-0.5,0.6c-0.1,0.1-0.2,0.2-0.3,0.4c-0.1,0.2-0.3,0.4-0.4,0.5c-0.1,0.2-0.2,0.4-0.3,0.5c0,0,0,0.1-0.1,0.1
	c-0.2,0.3-0.4,0.6-0.5,1c0,0,0,0,0,0.1c-0.2,0.5-0.4,0.9-0.5,1.4c0,0,0,0.1,0,0.1c-0.1,0.2-0.1,0.4-0.1,0.5
	c-0.1,0.4-0.2,0.7-0.2,1.1c-0.1,0.4-0.1,0.7-0.1,1.1l0,0.1c0,0.5,0,0.9,0,1.4c0,0.2,0,0.4,0.1,0.7c0,0.2,0,0.4,0.1,0.5
	c0.1,0.4,0.1,0.7,0.2,1.1c0,0.2,0.1,0.4,0.1,0.5c0,0,0,0.1,0,0.1c0,0.1,0.1,0.3,0.1,0.4c0.1,0.3,0.3,0.7,0.4,1c0,0,0,0,0,0.1
	c0.2,0.3,0.3,0.7,0.5,1c0,0,0,0.1,0.1,0.1c0.2,0.4,0.5,0.7,0.7,1.1c0.3,0.3,0.5,0.7,0.8,1c0,0,0.1,0.1,0.1,0.1
	c0.1,0.2,0.3,0.3,0.5,0.5c0,0,0.1,0.1,0.1,0.1c0.1,0.1,0.3,0.3,0.5,0.4c0.1,0,0.1,0.1,0.2,0.1c0.1,0.1,0.2,0.2,0.4,0.3
	c0.1,0.1,0.2,0.2,0.3,0.3c0.1,0,0.1,0.1,0.2,0.1c0.2,0.1,0.4,0.2,0.5,0.3c0,0,0.1,0,0.1,0.1c0.3,0.2,0.6,0.3,1,0.5l0.1,0
	c0.5,0.2,0.9,0.4,1.4,0.5c0,0,0.1,0,0.1,0c0.2,0.1,0.4,0.1,0.5,0.1c0.4,0.1,0.7,0.2,1.1,0.2c0.5,0.1,1,0.1,1.5,0.1h0.7
	c0.5,0,1-0.1,1.5-0.1c0.5-0.1,1.1-0.2,1.6-0.4v0H41c0.5-0.2,1-0.3,1.4-0.5c0,0,0.1,0,0.1-0.1c0.3-0.1,0.6-0.3,0.9-0.5
	c0,0,0.1-0.1,0.1-0.1c0.2-0.1,0.4-0.2,0.5-0.3c0.1,0,0.1-0.1,0.2-0.1c0.1-0.1,0.3-0.2,0.4-0.3c0.2-0.1,0.4-0.3,0.5-0.4
	c0.1-0.1,0.3-0.2,0.4-0.4c0,0,0.1-0.1,0.1-0.1c0.1-0.1,0.3-0.3,0.4-0.4c0,0,0.1-0.1,0.1-0.1c0.1-0.1,0.3-0.3,0.4-0.4
	c0.1-0.2,0.3-0.4,0.4-0.5h-0.3C46.7,30.9,46.5,30.9,46.3,30.9z M32.8,15.7v-0.5h0.5v1.1h-0.5V15.7z M36.6,28.2v1.6H36v-0.5v-0.5
	v-0.5L36.6,28.2z M38.7,31.9h-0.5v-0.5h0.5V31.9z M45.2,31.9h-1.1v-0.5h1.1V31.9z"/>
<path fill="#4A538A" stroke="#4A538A" stroke-width="0.494" stroke-miterlimit="2.613" d="M49,26.5V26h-0.5v2.6
	c0.1-0.1,0.1-0.3,0.2-0.4c0.1-0.2,0.1-0.4,0.2-0.5c0.1-0.2,0.1-0.3,0.2-0.5v-0.1h0c0.1-0.2,0.1-0.4,0.1-0.5H49z M46.8,24.9v-0.5
	h-1.1v0.5H46.8z M43.6,27.6v-0.5h3.2v-0.5V26h-0.5v-0.5h-1.1V26h-1.1v-0.5h-1.1V26h-0.5v1.6H43.6z M40.9,11.9
	c-0.2-0.1-0.4-0.1-0.5-0.1V12L40.9,11.9L40.9,11.9z M37.7,20.6h2.7v0.5h0.5v-0.5v-0.5v-0.5V19v-0.5H42v-0.5v-0.5h-0.5v-0.5v-0.5
	h-0.5v-0.5v-0.5h0.5v-0.5v-0.5H42v-0.5V13h-0.5v0.5h-0.5v1.1h-0.5v3.2h-0.5v1.6h-0.5v0.5h-1.1v-0.5h-0.5V20.6z"/>
<path fill="#FFFFFF" stroke="#4A538A" stroke-width="0.494" stroke-miterlimit="2.613" d="M42,14.7v-0.5h-0.5v0.5H42z M39.8,14.7
	v-0.5h-0.5v0.5H39.8z M43.1,14.7v-0.5h-0.5v0.5H43.1z M40.4,14.7v-0.5h-0.5v0.5H40.4z"/>
<path fill="#FFFFFF" stroke="#4A538A" stroke-width="0.494" stroke-miterlimit="2.613" d="M40.9,14.7v-0.5h-0.5v0.5H40.9z
	 M45.2,14.7v-0.4c-0.1-0.1-0.1-0.1-0.2-0.2h-0.3v0.5H45.2z M45.8,15.2v0.5h0.5v-0.4c0,0-0.1-0.1-0.1-0.1H45.8z"/>
<path fill="#FFFFFF" stroke="#4A538A" stroke-width="0.494" stroke-miterlimit="2.613" d="M45.8,16.3h0.5v-0.5h-0.5V16.3z
	 M43.6,14.7v-0.5h-0.5v0.5H43.6z M44.7,14.7v-0.5h-0.5v0.5H44.7z"/>
<path fill="#FFFFFF" stroke="#4A538A" stroke-width="0.494" stroke-miterlimit="2.613" d="M44.1,14.7v-0.5h-0.5v0.5H44.1z"/>
<path fill="#FFFFFF" d="M24.5,10.1L25.5,9l2.1,2c0.2,0.2,0.4,0.4,0.5,0.7c0.1,0.2,0.2,0.5,0.2,0.8c0,0.3,0,0.5-0.1,0.7
	c-0.1,0.3-0.3,0.6-0.6,0.9c-0.2,0.2-0.4,0.4-0.6,0.5c-0.2,0.2-0.4,0.3-0.6,0.4c-0.2,0.1-0.4,0.1-0.7,0.1c-0.2,0-0.5-0.1-0.6-0.2
	c-0.3-0.1-0.5-0.3-0.7-0.5l-2.1-2l1.1-1.1l2.2,2.1c0.2,0.2,0.4,0.3,0.6,0.3c0.2,0,0.4-0.1,0.6-0.3c0.2-0.2,0.3-0.4,0.3-0.6
	c0-0.2-0.1-0.4-0.3-0.6L24.5,10.1z M30.8,6l4-1L35,6l-2.5,0.6l0.2,0.8L35,6.8l0.3,1L33,8.3l0.2,0.9l2.6-0.7l0.3,1.1l-4,1.1L30.8,6z
	 M40.6,5.1l3.6,1l-0.3,1l-2.2-0.6l-0.2,0.8l1.8,0.5l-0.3,1l-1.8-0.5l-0.5,2l-1.5-0.4L40.6,5.1z M48.3,12.3l1.7-0.8L49,13.1
	L48.3,12.3z M48.1,14.8l1.1,1.1l2.3-4.8l-1.2-1.2l-4.8,2.1l1.1,1.1l0.8-0.4l1.2,1.3L48.1,14.8z"/>
</svg>
