<?xml version="1.0" encoding="UTF-8"?>
<svg width="32px" height="32px" viewBox="0 0 32 32" version="1.1" xmlns="http://www.w3.org/2000/svg" xmlns:xlink="http://www.w3.org/1999/xlink">
    <title>Coindrop</title>
    <defs>
        <linearGradient x1="4.95692136%" y1="89.4504195%" x2="97.74799%" y2="7.6977561%" id="linearGradient-1">
            <stop stop-color="#F66B24" offset="0%"></stop>
            <stop stop-color="#F9C241" offset="100%"></stop>
        </linearGradient>
    </defs>
    <g id="Coindrop" stroke="none" stroke-width="1" fill="none" fill-rule="evenodd">
        <g id="SVG-Layer" transform="translate(8.000000, 8.000000)" fill-rule="nonzero">
            <path d="M0.61875,8.49375 C0.61875,8.49375 1.6875,3.65625 10.35,1.63125 C10.35,1.63125 9.39375,2.25 9.1125,3.7125 C11.3625,3.43125 13.05,6.7168493e-15 17.49375,0.3375 C17.49375,0.3375 16.0875,1.125 15.24375,2.30625 C14.5125,3.375 14.11875,4.5 14.0625,5.00625 C15.80625,4.10625 17.83125,4.6125 17.83125,4.6125 C17.83125,4.6125 15.975,5.7375 15.13125,6.975 C14.11875,8.55 13.6125,10.125 12.6,11.75625 C11.025,14.34375 8.71875,15.6375 6.69375,15.80625 L0.61875,8.49375 Z" id="路径" fill="#FFD154"></path>
            <path d="M11.925,10.06875 C11.925,13.275 9.3375,15.80625 6.1875,15.80625 C2.98125,15.80625 0.45,13.21875 0.45,10.06875 C0.45,6.91875 2.98125,4.275 6.13125,4.275 C9.3375,4.275 11.925,6.8625 11.925,10.06875" id="路径" fill="url(#linearGradient-1)"></path>
            <path d="M8.26875,10.18125 C8.4375,9.9 8.55,9.61875 8.55,9.28125 C8.55,8.4375 7.93125,7.7625 7.14375,7.7625 L6.91875,7.7625 L6.91875,7.0875 C6.91875,7.03125 6.8625,6.975 6.80625,6.975 L6.4125,6.975 C6.35625,6.975 6.3,7.03125 6.3,7.0875 L6.3,7.7625 L5.625,7.7625 L5.625,7.0875 C5.625,7.03125 5.56875,6.975 5.5125,6.975 L5.11875,6.975 C5.0625,6.975 5.00625,7.03125 5.00625,7.0875 L5.00625,7.7625 L3.65625,7.7625 C3.6,7.7625 3.54375,7.81875 3.54375,7.875 L3.54375,8.26875 C3.54375,8.325 3.6,8.38125 3.65625,8.38125 C4.10625,8.4375 4.33125,8.71875 4.33125,9.1125 L4.33125,11.64375 C4.33125,11.98125 4.1625,12.2625 3.76875,12.2625 C3.7125,12.2625 3.65625,12.31875 3.65625,12.375 L3.6,12.76875 C3.6,12.825 3.65625,12.9375 3.7125,12.9375 L5.00625,12.9375 L5.00625,13.5 C5.00625,13.55625 5.0625,13.6125 5.11875,13.6125 L5.5125,13.6125 C5.56875,13.6125 5.625,13.55625 5.625,13.5 L5.625,12.9375 L6.3,12.9375 L6.3,13.5 C6.3,13.55625 6.35625,13.6125 6.4125,13.6125 L6.80625,13.6125 C6.8625,13.6125 6.91875,13.55625 6.91875,13.5 L6.91875,12.9375 L7.48125,12.9375 C8.26875,12.9375 8.8875,12.2625 8.8875,11.41875 C8.8875,10.9125 8.60625,10.4625 8.26875,10.18125 L8.26875,10.18125 Z M5.625,8.71875 L6.6375,8.71875 C7.03125,8.71875 7.3125,9 7.3125,9.39375 C7.3125,9.7875 7.03125,10.06875 6.6375,10.06875 L5.625,10.06875 L5.625,8.71875 Z M6.91875,11.98125 L5.625,11.98125 L5.625,10.63125 L6.91875,10.63125 C7.3125,10.63125 7.59375,10.9125 7.59375,11.30625 C7.59375,11.7 7.3125,11.98125 6.91875,11.98125 Z" id="形状" fill="#FFFFFF"></path>
        </g>
    </g>
</svg>