<?xml version="1.0" encoding="UTF-8"?>
<svg width="32px" height="32px" viewBox="0 0 32 32" version="1.1" xmlns="http://www.w3.org/2000/svg" xmlns:xlink="http://www.w3.org/1999/xlink">
    <title>ShitCode</title>
    <defs>
        <linearGradient x1="46.9183071%" y1="-2.4735583%" x2="67.3076043%" y2="94.801806%" id="linearGradient-1">
            <stop stop-color="#10D763" offset="0%"></stop>
            <stop stop-color="#0BC157" offset="100%"></stop>
        </linearGradient>
        <linearGradient x1="51.7456647%" y1="3.08161091%" x2="50%" y2="100%" id="linearGradient-2">
            <stop stop-color="#15BE5C" offset="0%"></stop>
            <stop stop-color="#0D9747" offset="100%"></stop>
        </linearGradient>
    </defs>
    <g id="ShitCode" stroke="none" stroke-width="1" fill="none" fill-rule="evenodd">
        <g id="编组-19" transform="translate(9.000000, 7.000000)">
            <g id="编组">
                <g id="编组-5" transform="translate(0.000000, 1.878724)">
                    <path d="M0.569563966,5.03519385 L3.1338127,0.931290671 C3.42646634,0.462918713 4.04339949,0.32047087 4.51177145,0.61312451 C4.53820209,0.629639212 4.56384623,0.647380488 4.58861992,0.666290243 L9.13993093,4.14030649 C9.58333044,4.47875339 9.95104101,4.90619739 10.2194453,5.39518466 L14.5819392,13.3429099 L14.5819392,13.3429099 L14.0287687,15.121384 C13.9216554,15.4657592 13.6374085,15.7257792 13.2848784,15.8018713 L6.06818695,17.3595624 C5.60877606,17.4587242 5.14230803,17.224582 4.94732121,16.7969471 L0.445930769,6.92473365 C0.167476401,6.31404214 0.213908817,5.60439538 0.569563966,5.03519385 Z" id="矩形" fill="#0F9949"></path>
                    <path d="M1.50539384,3.95258511 L3.19929691,0.923476322 C3.46885457,0.441441971 4.07814027,0.269195578 4.56017462,0.538753234 C4.57658678,0.547931051 4.5927368,0.557569964 4.60860543,0.567658475 L9.06570434,3.40126846 C9.68308458,3.79376924 10.180998,4.34807011 10.5052703,5.00386176 L14.4369553,12.9550993 C14.6817537,13.4501671 14.4788703,14.0499473 13.9838025,14.2947457 C13.9129092,14.3298007 13.8381077,14.3563219 13.7609659,14.3737534 L6.89310642,15.925666 C6.42960263,16.0304027 5.95640392,15.7944927 5.76108029,15.3613019 L1.42776292,5.75082616 C1.16721426,5.17297865 1.19601544,4.5058286 1.50539384,3.95258511 Z" id="矩形" fill="#10D763"></path>
                    <path d="M4.58895494,3.00215205 C4.83441483,3.00215205 5.10813324,2.61781436 5.10813324,2.06552961 C5.10813324,1.51324486 4.91782474,0.961139976 4.58895494,1.00215205 C4.26008515,1.04316412 4,1.51237014 4,2.06465489 C4,2.61693964 4.34349506,3.00215205 4.58895494,3.00215205 Z" id="椭圆形" fill="#0F9949" transform="translate(4.554067, 2.001076) rotate(-29.000000) translate(-4.554067, -2.001076) "></path>
                </g>
                <path d="M4.1379152,4.08116163 C4.11419405,3.99522391 4.20221228,3.49978736 3.98240628,2.11285406 C3.58413775,0.787803462 2.74953638,0.599777058 2.66631146,0.599777058 C2.61082819,0.599777058 2.15080575,0.68577058 1.28624414,0.857757623 C1.7908338,0.157670444 2.35502532,-0.111609068 2.97881873,0.0499190867 C4.05490624,0.283600207 5.18207595,1.66407491 4.78280797,4.54121004 C4.68551119,4.62917849 4.59838672,4.53601275 4.38343811,4.3826145 C4.29489989,4.31942913 4.16163635,4.16709936 4.1379152,4.08116163 Z" id="路径-4" fill="url(#linearGradient-1)"></path>
                <path d="M2.58104253,3.741938 C2.13599905,3.25204644 1.88154712,2.76838694 1.81768674,2.29095951 C1.7318756,1.64942564 1.73918558,0.826470887 2.74943371,0.612198142 C2.76303985,0.619666494 1.86426881,0.187682526 1.30986665,0.826470887 C1.04502404,1.20380808 1.01353515,1.87872351 1.18380322,2.66458295 C1.35119585,3.43717103 1.96659278,4.22538038 2.22770274,4.43165943 C2.19948897,4.43804044 2.31726889,4.20813329 2.58104253,3.741938 Z" id="路径-3" fill="url(#linearGradient-2)"></path>
            </g>
            <path d="M8.30769231,14.9384615 L8.30769231,13.8820513 C8.83418803,13.8136752 9.24786325,13.6290598 9.54871795,13.3282051 C9.84957265,13.0273504 10,12.6512821 10,12.2 C10,11.7760684 9.87521368,11.425641 9.62564103,11.1487179 C9.37606838,10.8717949 9.00512821,10.6547009 8.51282051,10.4974359 L8.06153846,10.3538462 C7.75384615,10.2512821 7.52820513,10.1470085 7.38461538,10.0410256 C7.24102564,9.93504274 7.16923077,9.77606838 7.16923077,9.56410256 C7.16923077,9.34529915 7.25299145,9.17948718 7.42051282,9.06666667 C7.58803419,8.95384615 7.7982906,8.8974359 8.05128205,8.8974359 C8.27008547,8.8974359 8.49230769,8.92820513 8.71794872,8.98974359 C8.94358974,9.05128205 9.15555556,9.13675214 9.35384615,9.24615385 L9.66153846,8.40512821 C9.46324786,8.28888889 9.26153846,8.2017094 9.05641026,8.14358974 C8.85128205,8.08547009 8.64957265,8.04615385 8.45128205,8.02564103 L8.45128205,7 L7.68205128,7 L7.68205128,8.02564103 C7.18290598,8.05982906 6.77777778,8.22393162 6.46666667,8.51794872 C6.15555556,8.81196581 6,9.2017094 6,9.68717949 C6,9.90598291 6.03760684,10.1008547 6.11282051,10.2717949 C6.18803419,10.442735 6.28888889,10.5931624 6.41538462,10.7230769 C6.54188034,10.8529915 6.69401709,10.965812 6.87179487,11.0615385 C7.04957265,11.157265 7.24102564,11.2393162 7.44615385,11.3076923 L7.90769231,11.4615385 C8.23589744,11.5641026 8.47350427,11.6769231 8.62051282,11.8 C8.76752137,11.9230769 8.84102564,12.0871795 8.84102564,12.2923077 C8.84102564,12.5111111 8.75555556,12.6854701 8.58461538,12.8153846 C8.41367521,12.9452991 8.16410256,13.0102564 7.83589744,13.0102564 C7.61709402,13.0102564 7.38632479,12.9794872 7.14358974,12.9179487 C6.9008547,12.8564103 6.65982906,12.7470085 6.42051282,12.5897436 L6.02051282,13.4102564 C6.25982906,13.5538462 6.4991453,13.6632479 6.73846154,13.7384615 C6.97777778,13.8136752 7.24444444,13.8649573 7.53846154,13.8923077 L7.53846154,14.9384615 L8.30769231,14.9384615 Z" id="$" fill="#FFFFFF" fill-rule="nonzero" transform="translate(8.000000, 10.969231) rotate(-21.000000) translate(-8.000000, -10.969231) "></path>
        </g>
    </g>
</svg>