<?xml version="1.0" encoding="UTF-8"?>
<svg width="32px" height="32px" viewBox="0 0 32 32" version="1.1" xmlns="http://www.w3.org/2000/svg" xmlns:xlink="http://www.w3.org/1999/xlink">
    <title>tip</title>
    <g id="tip" stroke="none" stroke-width="1" fill="none" fill-rule="evenodd">
        <g id="编组-9" transform="translate(9.000000, 7.000000)">
            <path d="M11.7433872,3.03025839 C11.7092425,3.03736365 11.6620714,3.04308733 11.6032556,3.04782418 C11.0277293,3.09361365 9.38621614,3.07585049 8.85036088,3.86315312 C8.83516351,3.88427154 8.82193983,3.90637681 8.80871614,3.92887681 C8.15542667,4.16335049 7.08095298,4.0332847 6.43812404,3.91940312 C6.11818983,3.86315312 5.9052293,3.8114426 5.9052293,3.8114426 C5.87404509,3.65532418 5.08457141,1.69999523 4.10661088,1.1532847 C4.06003193,1.08637681 4.03654509,1.01848207 4.03082141,0.953942597 C3.99292667,0.48479786 4.91779509,0.101113649 5.52667667,0.409600492 C6.22062404,0.761508386 6.50443983,0.722824176 6.85200562,0.644271544 C7.19937404,0.566903123 7.67266351,-0.215662666 8.30305825,0.0576925968 C8.93463719,0.33223207 9.53384772,1.30940312 9.53384772,1.30940312 C9.53384772,1.30940312 10.9227293,1.38795575 11.4270056,1.9745347 C11.9326635,2.56111365 12.1221372,2.95170575 11.7433872,3.03025839" id="Fill-701" fill="#FFD097"></path>
            <path d="M11.6032556,3.04780444 C11.0277293,3.09359391 9.38621614,3.07602812 8.85036088,3.86313339 L7.46720298,3.6849097 C7.46720298,3.6849097 6.99667667,3.79504128 6.43812404,3.91938339 C6.11818983,3.86313339 5.9052293,3.81142286 5.9052293,3.81142286 C5.87404509,3.65550181 5.08457141,1.69997549 4.10661088,1.15326497 C4.06003193,1.08635707 4.03654509,1.01846233 4.03082141,0.95392286 C4.50509772,1.05004128 5.10154509,1.23319918 5.43174246,1.54405444 C5.99976877,2.04260707 6.30766351,2.48234391 6.30766351,2.3943176 C6.30766351,2.30648865 6.16555825,1.01609391 6.33115035,1.10412023 C6.49693983,1.19214654 6.85200562,1.89596233 6.85200562,1.89596233 C6.85200562,1.89596233 7.60930825,0.693593913 8.05891351,0.928067597 C8.50851877,1.16273865 8.91075562,2.27708075 8.93463719,2.18905444 C8.95832141,2.10122549 11.3723346,2.33589654 11.5852951,2.98089654 C11.5927951,3.00319918 11.5985188,3.02550181 11.6032556,3.04780444" id="Fill-703" fill="#FFC17E"></path>
            <path d="M5.29634772,4.85457418 C5.29634772,4.85457418 4.95213719,3.93049523 5.92733456,3.16588997 C6.90292667,2.40108733 8.48068983,2.68786365 8.93957141,3.70746891 C9.39865035,4.72707418 9.19792667,5.14135049 9.19792667,5.14135049 L5.29634772,4.85457418 Z" id="Fill-705" fill="#7E4A22"></path>
            <path d="M14.7335977,16.237561 C14.382874,16.9707847 12.7393872,17.7215742 10.7295846,18.1648636 C9.19583456,18.5039426 7.44912404,18.6634163 5.90076877,18.50039 C2.32346614,18.1226268 0.477281932,17.5255873 0.0707029842,16.3982189 C0.0209661421,16.2598636 -0.00113912106,16.1061136 1.68286437e-14,15.9395347 C0.00616351052,15.0292715 0.710571405,13.7635479 1.30741351,12.8065084 C1.46274246,12.5576268 1.24721614,10.9413768 1.28215035,10.5823636 C1.36129509,9.75420575 1.54701877,8.94716628 1.86083456,8.2070347 C2.65405825,6.33479786 4.11261088,4.91532418 5.74543983,4.30881102 C5.87649246,4.25966628 6.00951877,4.21624523 6.1437293,4.17854786 C6.36557141,4.11538997 6.59155825,4.06723207 6.81754509,4.03545575 C7.91175562,3.8795347 9.03438719,4.09999523 10.0514267,4.79571891 C11.2439267,5.61085049 12.3677425,6.96696891 12.7605056,8.63966628 C13.0541898,9.88782418 13.2495846,11.4010479 13.0997819,12.6807847 C13.0997819,12.6807847 15.3513609,14.9436136 14.7335977,16.237561" id="Fill-707" fill="#FFDDAD"></path>
            <path d="M14.8507754,16.237561 C14.500249,16.9707847 12.8567622,17.7215742 10.8469596,18.1648636 C9.31320956,18.5039426 7.56649904,18.6634163 6.01794641,18.50039 C2.44084114,18.1226268 0.594656932,17.5255873 0.187880616,16.3982189 C0.138341142,16.2598636 0.116235879,16.1061136 0.117191134,15.9395347 C2.67531483,18.562561 7.92551219,17.9114426 8.28136746,16.5004558 C8.77676219,14.5354558 7.91169641,14.7993373 6.74998588,12.922561 C7.56649904,10.4684821 6.63492009,5.19795575 6.2611043,4.17854786 C6.48274904,4.11538997 6.70873588,4.06723207 6.93492009,4.03545575 C8.02913062,3.8795347 9.15176219,4.09999523 10.1688017,4.79571891 C11.3611043,5.61085049 12.4851175,6.96696891 12.8778806,8.63966628 C13.1713675,9.88782418 13.3667622,11.4010479 13.2169596,12.6807847 C13.2169596,12.6807847 15.4687359,14.9436136 14.8507754,16.237561" id="Fill-711" fill="#FFD097"></path>
            <path d="M14.7335977,16.237561 C14.382874,16.9707847 12.7393872,17.7215742 10.7295846,18.1648636 C10.9936635,17.4458505 11.3465582,16.3772979 11.226953,15.7964426 C11.0289925,14.8342715 10.610374,14.1683505 10.2217556,13.732561 C9.71293983,13.1619689 9.42636088,12.3920347 9.39517667,11.5895347 C9.36853193,10.9064426 9.29392667,10.0048636 9.11471614,8.93413997 C8.68168983,6.78163997 7.77320298,5.1839426 6.81754509,4.03545575 C7.91175562,3.8795347 9.03438719,4.09999523 10.0514267,4.79571891 C11.2439267,5.61085049 12.3677425,6.96696891 12.7605056,8.63966628 C13.0541898,9.88782418 13.2495846,11.4010479 13.0997819,12.6807847 C13.0997819,12.6807847 15.3513609,14.9436136 14.7335977,16.237561" id="Fill-713" fill="#FFC17E"></path>
            <path d="M7.85075036,13.6949149 L7.85075036,12.4085313 C8.24080672,12.8319767 8.20638237,13.4130494 7.85075036,13.6949149 M6.8943746,13.7873171 L6.8943746,11.9426378 C7.08124965,11.9923331 7.25311257,12.0324518 7.41565763,12.1025946 C7.42730496,12.7199034 7.43946996,13.3260826 7.45008198,13.8551305 C7.25052428,13.8792017 7.06468455,13.8533187 6.8943746,13.7873171 M6.1362624,10.1411831 C6.18259292,9.92402498 6.28379533,9.76769184 6.41786912,9.66157166 C6.42201039,9.97139082 6.42744582,10.3091636 6.43314007,10.6616896 C6.21002887,10.5402985 6.08449646,10.3850007 6.1362624,10.1411831 M7.24275939,9.50472086 C7.28883107,9.51352107 7.33205563,9.52387426 7.3726919,9.53578043 C7.37864498,9.9755321 7.3866687,10.4794735 7.39572774,11.004639 C7.22205301,10.9476965 7.0512254,10.8969658 6.8943746,10.8459764 L6.8943746,9.48530864 C7.0085185,9.47573194 7.12680368,9.48297917 7.24275939,9.50472086 M8.8487977,11.8919072 C8.5464846,11.5251455 8.49342451,11.4260138 7.85075036,11.1708077 L7.85075036,9.84042299 C8.05548466,10.0966644 8.03943721,10.3938009 8.03943721,10.3938009 L9.03075498,10.2061494 C9.03075498,10.2061494 8.91039917,9.11673514 7.85075036,8.71684324 L7.85075036,8.01127347 C7.85075036,8.01127347 7.39521008,7.98590816 7.37243307,8.01127347 C7.36389169,8.02059134 7.36130339,8.23852595 7.3631152,8.59441679 C7.19746419,8.57060446 7.04113105,8.56542787 6.8943746,8.57578106 L6.8943746,8.01127347 C6.8943746,8.01127347 6.43857549,7.98590816 6.41579848,8.01127347 C6.40673944,8.02136783 6.40440997,8.27087966 6.40699827,8.67387751 C5.8269609,8.8723999 5.45010486,9.31991645 5.27125353,9.67813677 C4.98990564,10.2426443 5.1664275,10.9456258 5.77157135,11.4094487 C6.02134201,11.6007238 6.24678268,11.7195266 6.45358762,11.8020933 C6.46471729,12.398437 6.4761058,12.9945218 6.48697665,13.5310757 C6.21779376,13.2882935 6.00917702,12.9326615 5.87122078,12.5309578 C5.66234521,12.5933357 5,13.0310168 5,13.0310168 C5,13.0310168 5.31603107,14.5159228 6.47791761,14.8267772 C6.48982378,14.8298832 6.50198877,14.8329891 6.51389494,14.8360951 C6.52347164,15.292153 6.52968355,15.5750539 6.52968355,15.5750539 L6.8943746,15.5750539 L6.8943746,14.9163323 C7.08306146,14.9455801 7.27744257,14.9580039 7.47285899,14.9416976 C7.48114154,15.3356364 7.48631814,15.5750539 7.48631814,15.5750539 L7.85075036,15.5750539 L7.85075036,14.8707783 C8.07386156,14.8034826 8.29412564,14.6877857 8.50326004,14.5047931 C9.14981664,13.9392502 9.53443758,12.7230094 8.8487977,11.8919072" id="Fill-717" fill="#7E4A22"></path>
        </g>
    </g>
</svg>