
<svg xmlns="http://www.w3.org/2000/svg" width="20" height="19" viewBox="0 0 20 19" fill="none">
<path fill-rule="evenodd" clip-rule="evenodd" d="M8.85564 0.783042C9.2504 -0.261014 10.7496 -0.261014 11.1443 0.783042L13.0797 5.90196L18.8057 6.07637C19.8746 6.109 20.4913 7.50799 19.5019 8.24082L15.0089 11.5683L16.5888 16.7645C16.7597 17.3271 16.4966 17.8342 16.1216 18.0941C15.7504 18.3512 15.2107 18.415 14.7481 18.1155L9.99997 15.0412L5.2519 18.1155C4.78929 18.415 4.24956 18.3512 3.87847 18.0941C3.50341 17.8342 3.24027 17.3271 3.4113 16.7645L4.99107 11.5683L0.498179 8.24082C-0.491287 7.50799 0.125409 6.109 1.19427 6.07637L6.92028 5.90196L8.85564 0.783042Z" fill="#FFBF3A"/>
</svg>